<?xml version="1.0" encoding="iso-8859-1"?>
<!-- Generator: Adobe Illustrator 19.0.0, SVG Export Plug-In . SVG Version: 6.00 Build 0)  -->
<svg version="1.1" id="Layer_1" xmlns="http://www.w3.org/2000/svg" xmlns:xlink="http://www.w3.org/1999/xlink" x="0px" y="0px"
	 viewBox="0 0 512 512" style="enable-background:new 0 0 512 512;" xml:space="preserve">
<path style="fill:#FFDE33;" d="M484.397,115.311l-64.334,55.207L330.574,51.2c-7.345-9.795-22.706-8.57-28.271,2.56L256,146.365
	l-43.519,87.04l-83.812-83.812c-7.236-7.346-19.256-6.233-25.266,1.892L3.228,287.165C1.113,289.948,0,293.51,0,297.071v198.233
	C0,504.543,7.456,512,16.696,512h478.609c9.239,0,16.696-7.457,16.696-16.696V128C512,113.753,495.193,106.073,484.397,115.311z"/>
<path style="fill:#FFBC33;" d="M512,128v367.304c0,9.238-7.456,16.696-16.696,16.696H256V146.365l46.301-92.605
	c5.565-11.13,20.926-12.355,28.271-2.56l89.489,119.318l64.334-55.207C495.193,106.073,512,113.753,512,128z"/>
<path style="fill:#50B9FF;" d="M484.397,282.268l-64.334,55.207l-89.489-119.318c-7.456-9.906-22.706-8.57-28.271,2.56L256,313.322
	l-43.519,87.04l-83.812-83.812c-7.346-7.346-19.256-6.122-25.266,1.892L3.228,454.122C1.113,456.904,0,460.466,0,464.028v31.277
	C0,504.543,7.456,512,16.696,512h478.609c9.239,0,16.696-7.457,16.696-16.696V294.957C512,280.71,495.193,273.03,484.397,282.268z"
	/>
<path style="fill:#48A7E6;" d="M512,294.957v200.348c0,9.238-7.456,16.696-16.696,16.696H256V313.322l46.301-92.604
	c5.565-11.13,20.815-12.466,28.271-2.56l89.489,119.318l64.334-55.207C495.193,273.03,512,280.71,512,294.957z"/>
<path style="fill:#5C5F66;" d="M495.304,512H16.696C7.479,512,0,504.527,0,495.304V16.696C0,7.473,7.479,0,16.696,0
	s16.696,7.473,16.696,16.696v461.913h461.913c9.217,0,16.696,7.473,16.696,16.696S504.521,512,495.304,512z"/>
<path style="fill:#53565C;" d="M495.304,478.609H256V512h239.304c9.217,0,16.696-7.473,16.696-16.696
	S504.521,478.609,495.304,478.609z"/>
<g>
</g>
<g>
</g>
<g>
</g>
<g>
</g>
<g>
</g>
<g>
</g>
<g>
</g>
<g>
</g>
<g>
</g>
<g>
</g>
<g>
</g>
<g>
</g>
<g>
</g>
<g>
</g>
<g>
</g>
</svg>

