<svg id="Capa_1" enable-background="new 0 0 512 512" height="512" viewBox="0 0 512 512" width="512" xmlns="http://www.w3.org/2000/svg"><g><path d="m226 90.333-15 30v354.167l15 30h30l15-30v-384.167z" fill="#3a6fd8"/><path d="m183.167 90.333h42.833v414.167h-42.833z" fill="#3b88f5"/><path d="m298.833 7.5-15 15v467l15 15h30v-497z" fill="#61ce5b"/><path d="m256 7.5h42.833v497h-42.833z" fill="#94e368"/><path d="m80.333 504.5h-30l-30-82.833 30-82.834h75z" fill="#3a6fd8"/><path d="m7.5 338.833h42.833v165.667h-42.833z" fill="#3b88f5"/><path d="m123.167 256-15 15v218.5l15 15h30v-248.5z" fill="#61ce5b"/><path d="m80.333 256h42.833v248.5h-42.833z" fill="#94e368"/><path d="m431.667 504.5h-30l-30-82.833 30-82.834h75z" fill="#3a6fd8"/><path d="m358.833 338.833h42.833v165.667h-42.833z" fill="#3b88f5"/><path d="m474.5 256-15 15v218.5l15 15h30v-248.5z" fill="#61ce5b"/><path d="m431.667 256h42.833v248.5h-42.833z" fill="#94e368"/><path d="m153.167 248.5h-72.834c-4.143 0-7.5 3.358-7.5 7.5v75.333h-65.333c-4.143 0-7.5 3.358-7.5 7.5v165.667c0 4.142 3.357 7.5 7.5 7.5h145.667c4.143 0 7.5-3.358 7.5-7.5v-248.5c0-4.142-3.357-7.5-7.5-7.5zm-80.334 248.5h-57.833v-150.667h57.833zm72.834 0h-57.834v-233.5h57.834z"/><path d="m504.5 248.5h-72.833c-4.143 0-7.5 3.358-7.5 7.5v75.333h-65.334c-4.143 0-7.5 3.358-7.5 7.5v165.667c0 4.142 3.357 7.5 7.5 7.5h145.667c4.143 0 7.5-3.358 7.5-7.5v-248.5c0-4.142-3.357-7.5-7.5-7.5zm-80.333 248.5h-57.834v-150.667h57.834zm72.833 0h-57.833v-233.5h57.833z"/><path d="m328.833 0h-72.833c-4.143 0-7.5 3.358-7.5 7.5v75.333h-65.333c-4.143 0-7.5 3.358-7.5 7.5v414.167c0 4.142 3.357 7.5 7.5 7.5h145.666c4.143 0 7.5-3.358 7.5-7.5v-497c0-4.142-3.357-7.5-7.5-7.5zm-7.5 497h-57.833v-184.583c0-4.142-3.357-7.5-7.5-7.5s-7.5 3.358-7.5 7.5v184.583h-57.833v-399.167h57.833v184.583c0 4.142 3.357 7.5 7.5 7.5s7.5-3.358 7.5-7.5v-267.416h57.833z"/></g></svg>