<?xml version="1.0" encoding="iso-8859-1"?>
<!-- Generator: Adobe Illustrator 19.0.0, SVG Export Plug-In . SVG Version: 6.00 Build 0)  -->
<svg version="1.1" id="Layer_1" xmlns="http://www.w3.org/2000/svg" xmlns:xlink="http://www.w3.org/1999/xlink" x="0px" y="0px"
	 viewBox="0 0 425 425" style="enable-background:new 0 0 425 425;" xml:space="preserve">
<g>
	<path d="M293.333,45V20h-30v25H161.667V20h-30v25H0v360h425V45H293.333z M131.667,75v25h30V75h101.667v20h30V75H395v50H30V75
		H131.667z M30,375V155h365v220H30z"/>
	<path d="M204.031,269.706c-1.774-2.286-3.92-4.2-6.44-5.74c-2.52-1.54-5.32-2.59-8.4-3.15c5.506-1.212,9.94-3.592,13.3-7.14
		c3.36-3.546,5.04-8.072,5.04-13.58c0-3.92-0.888-7.536-2.66-10.85c-1.774-3.312-4.224-6.182-7.35-8.61
		c-3.128-2.426-6.86-4.34-11.2-5.74c-4.34-1.4-9.03-2.1-14.07-2.1c-3.268,0-6.558,0.304-9.87,0.91
		c-3.314,0.608-6.488,1.47-9.52,2.59c-3.034,1.12-5.834,2.52-8.4,4.2c-2.568,1.68-4.69,3.594-6.37,5.74l14.28,16.52
		c0.652-1.12,1.562-2.286,2.73-3.5c1.166-1.212,2.566-2.332,4.2-3.36c1.632-1.026,3.522-1.866,5.67-2.52
		c2.146-0.652,4.62-0.98,7.42-0.98c1.026,0,2.192,0.14,3.5,0.42c1.306,0.28,2.52,0.748,3.64,1.4c1.12,0.654,2.076,1.564,2.87,2.73
		c0.792,1.168,1.19,2.59,1.19,4.27c0,2.054-0.654,3.804-1.96,5.25c-1.308,1.448-3.08,2.638-5.32,3.57
		c-2.24,0.934-4.854,1.61-7.84,2.03c-2.988,0.42-6.208,0.63-9.66,0.63h-4.62v18.62h4.62c8.772,0,15.516,0.934,20.23,2.8
		c4.712,1.868,7.07,4.948,7.07,9.24c0,1.774-0.42,3.338-1.26,4.69c-0.84,1.354-1.984,2.474-3.43,3.36
		c-1.448,0.888-3.104,1.564-4.97,2.03c-1.868,0.468-3.828,0.7-5.88,0.7c-3.36,0-6.254-0.512-8.68-1.54
		c-2.428-1.026-4.434-2.216-6.02-3.57c-1.588-1.352-2.824-2.73-3.71-4.13c-0.888-1.4-1.47-2.52-1.75-3.36l-11.62,15.26
		c2.706,5.88,6.79,10.338,12.25,13.37c5.46,3.034,12.11,4.55,19.95,4.55c4.666,0,9.286-0.538,13.86-1.61
		c4.572-1.072,8.68-2.776,12.32-5.11c3.64-2.332,6.602-5.296,8.89-8.89c2.286-3.592,3.43-7.862,3.43-12.81
		c0-3.08-0.468-6.042-1.4-8.89C207.157,274.56,205.803,271.994,204.031,269.706z"/>
	<path d="M270.671,213.215h-22.82c-0.094,0.188-0.864,0.98-2.31,2.38c-1.448,1.4-3.29,2.918-5.53,4.55
		c-2.24,1.634-4.69,3.128-7.351,4.48c-2.659,1.354-5.25,2.03-7.77,2.03v20.58c1.866,0,3.966-0.42,6.3-1.26
		c2.332-0.84,4.62-1.89,6.86-3.15c2.239-1.26,4.246-2.566,6.02-3.92c1.772-1.352,3.032-2.59,3.78-3.71v58.1h-19.74v20.16h60.341
		v-20.16h-17.78V213.215z"/>
</g>
<g>
</g>
<g>
</g>
<g>
</g>
<g>
</g>
<g>
</g>
<g>
</g>
<g>
</g>
<g>
</g>
<g>
</g>
<g>
</g>
<g>
</g>
<g>
</g>
<g>
</g>
<g>
</g>
<g>
</g>
</svg>
