<?xml version="1.0" encoding="iso-8859-1"?>
<!-- Generator: Adobe Illustrator 19.0.0, SVG Export Plug-In . SVG Version: 6.00 Build 0)  -->
<svg version="1.1" id="Layer_1" xmlns="http://www.w3.org/2000/svg" xmlns:xlink="http://www.w3.org/1999/xlink" x="0px" y="0px"
	 viewBox="0 0 498.56 498.56" style="enable-background:new 0 0 498.56 498.56;" xml:space="preserve">
<g>
	<g>
		<g>
			<path d="M456.756,0l-39.064,29.296l-8.264,16.528l-47.312,47.312l-12.288-12.28l-22.032,22.024
				c-10.088-5.464-20.736-9.872-31.792-13.16V58.56h-96v31.168c-11.056,3.288-21.704,7.696-31.792,13.16L146.18,80.864l-67.88,67.88
				l22.032,22.032c-5.464,10.096-9.864,20.744-13.168,31.792h-31.16v96h31.168c2.736,9.104,6.488,18,10.832,26.68l-82.4,82.4
				c-10.064,10.056-15.6,23.424-15.6,37.656c0,29.368,23.888,53.256,53.256,53.256c14.216,0,27.584-5.536,37.656-15.6l82.288-82.288
				c8.712,4.36,17.68,7.976,26.8,10.712v31.176h96v-31.168c11.048-3.288,21.696-7.696,31.792-13.16l22.032,22.024l67.88-67.88
				l-22.032-22.032c5.464-10.096,9.864-20.744,13.168-31.792h31.16V202.56h-31.168c-3.296-11.048-7.704-21.696-13.168-31.792
				l22.032-22.032l-12.28-12.28l47.32-47.32l16.52-8.264l29.296-39.064L456.756,0z M72.004,282.56v-64h27.44l1.544-6
				c3.56-13.776,9.008-26.92,16.184-39.088l3.152-5.336l-19.4-19.4l45.256-45.256l19.4,19.4l5.344-3.16
				c12.152-7.184,25.296-12.624,39.08-16.176l6-1.536V74.56h64v27.448l6,1.544c13.784,3.552,26.928,8.992,39.08,16.176l5.344,3.16
				l19.4-19.4l0.968,0.968l-60.264,60.264c-13.184-6.536-27.696-10.16-42.528-10.16c-52.936,0-96,43.064-96,96
				c0,6.296,0.784,12.544,1.992,18.696l-44.128,44.128c-3.704-8.104-6.704-16.408-8.872-24.824l-1.552-6H72.004z M192.692,230.56
				l-24.416,24.416c-0.088-1.472-0.272-2.936-0.272-4.416c0-44.112,35.888-80,80-80c10.544,0,20.944,2.104,30.592,6.096
				l-58.592,58.592l-30.344-30.344l-11.312,11.312L192.692,230.56z M79.604,471.648c-7.04,7.04-16.4,10.912-26.344,10.912
				c-20.544,0-37.256-16.712-37.256-37.256c0-9.96,3.872-19.312,10.912-26.344l177.088-177.088l20.688,20.688L66.348,420.904
				l11.312,11.312l158.344-158.344l20.688,20.688L79.604,471.648z M263.316,278.56l58.608-58.608
				c3.992,9.648,6.08,20.056,6.08,30.608c0,44.112-35.888,80-80,80c-1.48,0-2.944-0.184-4.416-0.272l24.416-24.416l14.344,14.344
				l11.312-11.312L263.316,278.56z M396.564,218.56h27.44v64h-27.44l-1.544,6c-3.56,13.776-9.008,26.92-16.184,39.088l-3.152,5.336
				l19.4,19.4l-45.256,45.256l-19.4-19.4l-5.344,3.16c-12.168,7.184-25.312,12.632-39.08,16.176l-6,1.536v27.448h-64v-27.448
				l-6-1.544c-8.408-2.168-16.72-5.168-24.816-8.88l44.128-44.128c6.144,1.216,12.384,2,18.688,2c52.936,0,96-43.064,96-96
				c0-14.832-3.624-29.352-10.152-42.536l60.264-60.264l0.968,0.976l-19.4,19.4l3.152,5.336
				c7.176,12.168,12.624,25.312,16.184,39.088L396.564,218.56z M458.74,68.248l-15.48,7.736L252.004,267.248l-20.688-20.688
				L421.66,56.216l0.92-0.92l7.736-15.472l24.936-18.704l22.184,22.184L458.74,68.248z"/>
			
				<rect x="40.039" y="439.248" transform="matrix(-0.7071 -0.7071 0.7071 -0.7071 -236.586 803.1229)" width="16" height="22.624"/>
		</g>
	</g>
</g>
<g>
</g>
<g>
</g>
<g>
</g>
<g>
</g>
<g>
</g>
<g>
</g>
<g>
</g>
<g>
</g>
<g>
</g>
<g>
</g>
<g>
</g>
<g>
</g>
<g>
</g>
<g>
</g>
<g>
</g>
</svg>
