<svg height="463pt" viewBox="0 0 463 463.99999" width="463pt" xmlns="http://www.w3.org/2000/svg"><path d="m168.5 232h-168c-.097656 61.554688 24.347656 120.605469 67.921875 164.078125l118.796875-118.796875c-11.988281-12.019531-18.71875-28.304688-18.71875-45.28125zm0 0" fill="#ab2300"/><path d="m232.5 168v-168c-128.128906 0-232 103.871094-232 232h168c0-35.347656 28.652344-64 64-64zm0 0" fill="#ffcd00"/><path d="m232.5 0v168c28.957031.023438 54.289062 19.484375 61.773438 47.457031 7.484374 27.972657-4.742188 57.484375-29.816407 71.964844-25.078125 14.480469-56.75 10.320313-77.238281-10.140625l-118.796875 118.796875c74.253906 74.226563 189.101563 89.335937 280.023437 36.835937 90.921876-52.5 135.257813-159.515624 108.09375-260.933593-27.160156-101.417969-119.046874-171.9531252-224.039062-171.980469zm0 0" fill="#009698"/><path d="m168.5 232c0 35.347656 28.652344 64 64 64s64-28.652344 64-64-28.652344-64-64-64c-35.320312.0625-63.9375 28.679688-64 64zm0 0" fill="#f1f2f2"/></svg>