<?xml version="1.0" encoding="iso-8859-1"?>
<!-- Generator: Adobe Illustrator 19.0.0, SVG Export Plug-In . SVG Version: 6.00 Build 0)  -->
<svg version="1.1" id="Layer_1" xmlns="http://www.w3.org/2000/svg" xmlns:xlink="http://www.w3.org/1999/xlink" x="0px" y="0px"
	 viewBox="0 0 512.001 512.001" style="enable-background:new 0 0 512.001 512.001;" xml:space="preserve">
<g>
	<g>
		<path d="M491.096,0H20.905c-5.632,0-10.199,4.566-10.199,10.199v59.403c0,2.802,1.131,5.338,2.96,7.182v0.002l0.024,0.026
			c0.001,0.002,0.003,0.003,0.005,0.005l195.524,197.016v169.438c0,3.099,1.409,6.029,3.828,7.965l73.163,58.53
			c1.845,1.476,4.099,2.235,6.373,2.235c1.501,0,3.011-0.332,4.416-1.007c3.534-1.699,5.781-5.272,5.781-9.193V273.833
			L498.306,76.816c0.002-0.002,0.003-0.003,0.005-0.005l0.024-0.026v-0.002c1.829-1.843,2.96-4.381,2.96-7.182V10.199
			C501.295,4.566,496.728,0,491.096,0z M282.383,480.58l-52.765-42.211V279.83h52.765V480.58z M288.335,259.432h-64.669
			L45.396,79.802h421.209L288.335,259.432z M480.897,59.403H31.104V20.398h449.793V59.403z"/>
	</g>
</g>
<g>
	<g>
		<path d="M200.291,191.208l-4.391-4.391c-3.98-3.982-10.439-3.984-14.424,0c-3.984,3.983-3.984,10.44-0.001,14.424l4.392,4.391
			c1.991,1.992,4.602,2.987,7.212,2.987s5.22-0.995,7.211-2.987C204.274,201.648,204.274,195.191,200.291,191.208z"/>
	</g>
</g>
<g>
	<g>
		<path d="M173.468,164.383L103.23,94.145c-3.984-3.982-10.44-3.982-14.425,0c-3.982,3.984-3.982,10.442,0.001,14.425l70.238,70.238
			c1.992,1.991,4.602,2.987,7.212,2.987s5.22-0.996,7.212-2.987C177.45,174.825,177.45,168.366,173.468,164.383z"/>
	</g>
</g>
<g>
</g>
<g>
</g>
<g>
</g>
<g>
</g>
<g>
</g>
<g>
</g>
<g>
</g>
<g>
</g>
<g>
</g>
<g>
</g>
<g>
</g>
<g>
</g>
<g>
</g>
<g>
</g>
<g>
</g>
</svg>
