<svg xmlns="http://www.w3.org/2000/svg" width="48" height="48" viewBox="0 0 48 48">
  <path d="M41.455,0H6.546A6.555,6.555,0,0,0,0,6.547V41.455A6.553,6.553,0,0,0,6.546,48H41.455A6.553,6.553,0,0,0,48,41.455V6.547A6.554,6.554,0,0,0,41.455,0Zm0,1.455a5.1,5.1,0,0,1,5.091,5.092v7.029H33.407V1.455Zm-40,5.091A5.1,5.1,0,0,1,6.546,1.454h8.277A5.4,5.4,0,0,0,20.17,6.128a4.45,4.45,0,0,1,4.444,4.445,6.133,6.133,0,0,1-.905,3.2,4.571,4.571,0,0,0-8.211,3.49A8.937,8.937,0,0,0,9.5,25.684a8.784,8.784,0,0,1-8.048,8.74ZM23.18,16.513a3.151,3.151,0,1,1-3.151-3.152A3.153,3.153,0,0,1,23.18,16.513ZM14.5,46.546H6.546A5.071,5.071,0,0,1,2.657,44.7L14.5,40.186v6.36Zm17.449,0H15.958V39.634l16-6.1Zm0-14.564L1.863,43.449a5.045,5.045,0,0,1-.408-1.994V35.879a10.234,10.234,0,0,0,9.5-10.193,7.462,7.462,0,0,1,5.019-7.029,4.612,4.612,0,0,0,3.326,2.4v8.426a.728.728,0,1,0,1.455,0V21.045a4.516,4.516,0,0,0,3.687-5.775,7.587,7.587,0,0,0,1.627-4.695,5.906,5.906,0,0,0-5.9-5.9A3.948,3.948,0,0,1,16.3,1.456H31.955V31.982Zm14.593,9.473a5.1,5.1,0,0,1-5.091,5.092H33.407V32.984l13.139-5.006ZM33.407,31.427v-16.4H46.546V26.422Z" fill="#1a171b"/>
</svg>
