<?xml version="1.0" encoding="UTF-8"?>
<svg width="250mm" height="270mm" version="1.1" viewBox="0 0 250 270" xmlns="http://www.w3.org/2000/svg">
<path d="m103.1 156.4 20.208 42.235 3.4962-0.027 12.194-21.293 8.6349 0.0658-4.4828-11.022 5.3708-12.87 11.729-4.5389-14.299-10.029-7.1961-22.758-17.961 1.7113-15.123-12.718-10.037 0.95377-11.866 10.382-10.626 16.035 1.5277 8.6817 11.067 23.633z" fill="#979797" fill-opacity=".15644" stroke="#808080" stroke-linecap="round" stroke-linejoin="round" stroke-width="11.871"/>
<path d="m129.65 26.056-0.75228 15.077-12.696 4.4049-19.635 2.5001-0.70088 11.565 5.3143 7.9115 8.6215 5.8723 12.79-4.9644 12.554-5.8758 7.5668 1.6923 10.662 9.0351 16.681 16.185 3.8312 11.057 9.201 18.763 9.942 11.327 18.9-15.778 6.5787-3.8663 6.8625 10.285-3.1373 14.225 12.901 6.9618 0.92017-8.2994 0.18933-11.017-1.9424-15.682-6.0446-17.695-8.3841-15.602-11.733-14.422-12.071-11.013-14.578-9.1728-17.044-7.4258-15.477-3.849-11.946-1.6063z" fill="#979797" fill-opacity=".15644" stroke="#808080" stroke-linecap="round" stroke-linejoin="round" stroke-width="11"/>
<path d="m165.09 188.85-5.6175 5.5933 2.5671 5.5779 4.2981 2.7471 10.202-0.92896 5.0882-4.2974 5.0785-4.5435-0.13327-6.6173s1.9987-6.7132 1.1185-6.8694c-0.88025-0.15614-3.745-5.2997-3.745-5.2997l-3.2983 2.1421-6.5946 1.2677s-4.2 3.4768-3.6591 3.8658c0.54094 0.38912 1.8611 2.7225 1.8611 3.2195s-0.50472 3.3809-2.0209 3.9574c-1.5161 0.57648-5.1452 0.18547-5.1452 0.18547z" fill="#979797" fill-opacity=".15644" stroke="#808080" stroke-linecap="round" stroke-linejoin="round" stroke-width="8.0837"/>
<path d="m19.43 164.91 9.5688-3.9026 8.9093 7.0721 19.104 3.7088 3.9928 9.6915-8.921 7.4534-0.34194 9.4513 1.3832 14.546-18.026-16.22-11.397-15.373z" fill="#979797" fill-opacity=".15644" stroke="#808080" stroke-linecap="round" stroke-linejoin="round" stroke-width="11.933"/>
<path d="m12.839 114.11 18.134 7.7623 13.843-9.4667 2.037-20.048 18.924-0.57371 14.887-5.8406s-2.076-19.711-4.2143-20.746c-2.1383-1.0345-13.057-12.271-13.057-12.271l-17.383 1.9976-9.9837 10.714-9.3229 13.025-6.8802 13.862z" fill="#979797" fill-opacity=".15644" stroke="#808080" stroke-linecap="round" stroke-linejoin="round" stroke-width="11.74"/>
<path d="m237.71 132.49a113.35 107.66 0 0 1-113.29 107.66 113.35 107.66 0 0 1-113.4-107.55 113.35 107.66 0 0 1 113.17-107.77 113.35 107.66 0 0 1 113.52 107.44" fill-opacity="0" stroke="#808080" stroke-width="11.765"/>
<path d="m128.85 142.23a13.559 12.975 0 0 1-13.552 12.975 13.559 12.975 0 0 1-13.566-12.961 13.559 12.975 0 0 1 13.538-12.988 13.559 12.975 0 0 1 13.58 12.948" fill-opacity="0" stroke="#2bb9bb" stroke-linecap="round" stroke-linejoin="round" stroke-width="26.154"/>
<path d="m45.763 181.63a4.2506 4.4344 0 0 1-4.2484 4.4344 4.2506 4.4344 0 0 1-4.2527-4.4299 4.2506 4.4344 0 0 1 4.2441-4.4389 4.2506 4.4344 0 0 1 4.257 4.4254" fill-opacity="0" stroke="#2bb9bb" stroke-linecap="round" stroke-linejoin="round" stroke-width="8.561"/>
<path d="m183.37 189.85a6.8839 6.9627 0 0 1-6.8804 6.9627 6.8839 6.9627 0 0 1-6.8874-6.9556 6.8839 6.9627 0 0 1 6.8734-6.9698 6.8839 6.9627 0 0 1 6.8943 6.9485" fill-opacity="0" stroke="#2bb9bb" stroke-linecap="round" stroke-linejoin="round" stroke-width="13.652"/>
<path d="m188.91 70.339a14.42 13.014 0 0 1-14.412 13.014 14.42 13.014 0 0 1-14.427-13.001 14.42 13.014 0 0 1 14.398-13.028 14.42 13.014 0 0 1 14.441 12.988" fill-opacity="0" stroke="#af99db" stroke-linecap="round" stroke-linejoin="round" stroke-width="27.013"/>
<path d="m60.761 90.152a9.6699 9.9377 0 0 1-9.6649 9.9377 9.6699 9.9377 0 0 1-9.6748-9.9276 9.6699 9.9377 0 0 1 9.6551-9.9478 9.6699 9.9377 0 0 1 9.6846 9.9174" fill-opacity="0" stroke="#af99db" stroke-linecap="round" stroke-linejoin="round" stroke-width="19.33"/>
</svg>
