<?xml version="1.0" encoding="UTF-8"?>
<!-- Created with Inkscape (http://www.inkscape.org/) -->
<svg width="250mm" height="270mm" version="1.1" viewBox="0 0 250 270" xmlns="http://www.w3.org/2000/svg">
 <defs>
  <clipPath id="clipPath4398">
   <path d="m-126.03 129.77v551.71h169.3v-130.99h141.14v130.99h173.04v-551.71z" fill="#00cba8" fill-opacity=".57853" stroke="#72005d" stroke-linecap="round" stroke-linejoin="round" stroke-width=".72757"/>
  </clipPath>
  <clipPath id="clipPath4398-36">
   <path d="m-126.03 129.77v551.71h169.3v-130.99h141.14v130.99h173.04v-551.71z" fill="#00cba8" fill-opacity=".57853" stroke="#72005d" stroke-linecap="round" stroke-linejoin="round" stroke-width=".72757"/>
  </clipPath>
  <clipPath id="clipPath9820">
   <path d="m0 0v253.18h266.61v-253.18zm216.34 182.25a32.135 24.747 0 0 1 32.135 24.747 32.135 24.747 0 0 1-32.135 24.747 32.135 24.747 0 0 1-32.135-24.747 32.135 24.747 0 0 1 32.135-24.747z" fill="#d96708" fill-opacity=".42486" stroke="#000" stroke-linecap="square" stroke-width="1.538"/>
  </clipPath>
 </defs>
 <g stroke-linecap="round" stroke-linejoin="round" stroke-opacity="0" stroke-width="1.3833">
  <g transform="matrix(-.43526 .16887 .15699 .41941 94.797 -33.143)" clip-path="url(#clipPath4398)" fill="#0076f6" style="shape-inside:url(#rect2933);white-space:pre" aria-label="?">
   <path d="m120.64 209.03c-30.507 0-60.32 7.8577-89.44 23.573l-18.027-49.92c15.715-8.32 33.28-15.022 52.693-20.107 19.875-5.0845 40.906-7.6267 63.093-7.6267 26.347 0 47.84 3.6977 64.48 11.093 17.102 6.9333 30.738 15.947 40.907 27.04 10.169 11.093 17.102 23.573 20.8 37.44 4.16 13.405 6.24 26.347 6.24 38.827 0 15.715-3.0044 29.813-9.0133 42.293-6.0089 12.018-13.405 23.342-22.187 33.973s-18.489 20.8-29.12 30.507c-10.631 9.7067-20.338 19.876-29.12 30.507-8.782 10.169-16.178 21.493-22.187 33.973-6.0089 12.018-9.0133 25.654-9.0133 40.907v7.6267c0 2.7733 0.23111 5.3156 0.69333 7.6267 0 0-19.951-5.9953-30.208-5.7387-8.1454 0.20376-23.871 5.7548-23.871 5.7548-1.8489-9.2447-2.7751-18.967-2.7751-29.136 0-14.791 2.5422-28.196 7.6267-40.213 5.5467-12.018 12.48-23.111 20.8-33.28 8.32-10.631 17.102-20.338 26.347-29.12 9.2447-9.2447 18.027-18.489 26.347-27.733 8.32-9.2447 15.022-18.951 20.107-29.12 5.5467-10.169 8.32-21.262 8.32-33.28 0-19.413-6.24-35.129-18.72-47.147-12.48-12.48-30.738-18.72-54.773-18.72zm43.68 400.05c0 12.48-4.16 23.342-12.48 32.587s-19.644 13.867-33.973 13.867-25.653-4.6223-33.973-13.867-12.48-20.107-12.48-32.587 4.16-23.342 12.48-32.587 19.644-13.867 33.973-13.867 25.653 4.6223 33.973 13.867 12.48 20.107 12.48 32.587z" fill="#2bb9bb" stroke-opacity="0"/>
  </g>
  <g transform="matrix(.43423 -.17152 -.15953 -.41844 94.925 315.35)" clip-path="url(#clipPath4398-36)" fill="#f68000" style="shape-inside:url(#rect2933);white-space:pre" aria-label="?">
   <path d="m120.64 209.03c-30.507 0-60.32 7.8577-89.44 23.573l-18.027-49.92c15.715-8.32 33.28-15.022 52.693-20.107 19.875-5.0845 40.906-7.6267 63.093-7.6267 26.347 0 47.84 3.6977 64.48 11.093 17.102 6.9333 30.738 15.947 40.907 27.04 10.169 11.093 17.102 23.573 20.8 37.44 4.16 13.405 6.24 26.347 6.24 38.827 0 15.715-3.0044 29.813-9.0133 42.293-6.0089 12.018-13.405 23.342-22.187 33.973s-18.489 20.8-29.12 30.507c-10.631 9.7067-20.338 19.876-29.12 30.507-8.782 10.169-16.178 21.493-22.187 33.973-6.0089 12.018-9.0133 25.654-9.0133 40.907v7.6267c0 2.7733 0.23111 5.3156 0.69333 7.6267 0 0-17.113-4.1896-25.852-4.2463-9.4898-0.0615-28.228 4.2463-28.228 4.2463-1.8489-9.2447-2.7733-18.951-2.7733-29.12 0-14.791 2.5422-28.196 7.6267-40.213 5.5467-12.018 12.48-23.111 20.8-33.28 8.32-10.631 17.102-20.338 26.347-29.12 9.2447-9.2447 18.027-18.489 26.347-27.733 8.32-9.2447 15.022-18.951 20.107-29.12 5.5467-10.169 8.32-21.262 8.32-33.28 0-19.413-6.24-35.129-18.72-47.147-12.48-12.48-30.738-18.72-54.773-18.72zm43.68 400.05c0 12.48-4.16 23.342-12.48 32.587s-19.644 13.867-33.973 13.867-25.653-4.6223-33.973-13.867-12.48-20.107-12.48-32.587 4.16-23.342 12.48-32.587 19.644-13.867 33.973-13.867 25.653 4.6223 33.973 13.867 12.48 20.107 12.48 32.587z" fill="#af99db" stroke-opacity="0"/>
  </g>
 </g>
 <g>
  <ellipse cx="41.525" cy="35.385" rx="15.714" ry="14.562" fill="#af99db" stroke-opacity="0"/>
  <ellipse cx="146.41" cy="247.14" rx="15.714" ry="14.562" fill="#2bb9bb" stroke-opacity="0"/>
  <ellipse cx="219.95" cy="193.15" rx="15.714" ry="14.562" fill="#808080" stroke="#808080" stroke-linecap="round" stroke-linejoin="round" stroke-width=".7"/>
 </g>
 <g transform="matrix(.93198 -.48871 .54175 1.0874 -84.007 94.322)" clip-path="url(#clipPath9820)" fill="#424242" stroke="#424242" stroke-linecap="square" stroke-width="2.4129" aria-label="!">
  <path d="m229.24 91.887c0 14.502-0.51794 27.71-1.5538 39.622-1.0359 11.74-2.3307 23.48-3.8846 35.22 0 0-4.1578-1.3445-6.3236-1.4091-2.9606-0.0883-8.6967 1.4091-8.6967 1.4091-1.5538-11.74-2.8487-23.48-3.8846-35.22-1.0359-11.913-1.5538-25.12-1.5538-39.622v-48.686h25.897zm4.4025 116.8c0 4.6615-1.5538 8.7187-4.6615 12.172s-7.3375 5.1794-12.69 5.1794-9.5819-1.7265-12.69-5.1794-4.6615-7.5101-4.6615-12.172 1.5538-8.7187 4.6615-12.172 7.3375-5.1794 12.69-5.1794 9.5819 1.7265 12.69 5.1794 4.6615 7.5101 4.6615 12.172z" fill="#808080" stroke="#808080" stroke-width=".11322"/>
 </g>
</svg>
