<?xml version="1.0" encoding="UTF-8"?>
<!-- Created with Inkscape (http://www.inkscape.org/) -->
<svg width="250mm" height="270mm" version="1.1" viewBox="0 0 250 270" xmlns="http://www.w3.org/2000/svg">
 <defs>
  <clipPath id="clipPath4398">
   <path d="m-126.03 129.77v551.71h169.3v-130.99h141.14v130.99h173.04v-551.71z" fill="#00cba8" fill-opacity=".57853" stroke="#72005d" stroke-linecap="round" stroke-linejoin="round" stroke-width=".72757"/>
  </clipPath>
  <clipPath id="clipPath4398-3">
   <path d="m-126.03 129.77v551.71h169.3v-130.99h141.14v130.99h173.04v-551.71z" fill="#00cba8" fill-opacity=".57853" stroke="#72005d" stroke-linecap="round" stroke-linejoin="round" stroke-width=".72757"/>
  </clipPath>
  <clipPath id="clipPath4398-36">
   <path d="m-126.03 129.77v551.71h169.3v-130.99h141.14v130.99h173.04v-551.71z" fill="#00cba8" fill-opacity=".57853" stroke="#72005d" stroke-linecap="round" stroke-linejoin="round" stroke-width=".72757"/>
  </clipPath>
  <clipPath id="clipPath9820">
   <path d="m0 0v253.18h266.61v-253.18zm216.34 182.25a32.135 24.747 0 0 1 32.135 24.747 32.135 24.747 0 0 1-32.135 24.747 32.135 24.747 0 0 1-32.135-24.747 32.135 24.747 0 0 1 32.135-24.747z" fill="#d96708" fill-opacity=".42486" stroke="#000" stroke-linecap="square" stroke-width="1.538"/>
  </clipPath>
 </defs>
 <g stroke-linecap="round" stroke-linejoin="round" stroke-width="1.3833">
  <g transform="matrix(-.43526 .16887 .15699 .41941 94.797 -33.143)" clip-path="url(#clipPath4398)" fill="#0076f6" stroke-opacity="0" style="shape-inside:url(#rect2933);white-space:pre" aria-label="?">
   <path d="m120.64 209.03q-45.76 0-89.44 23.573l-18.027-49.92q23.573-12.48 52.693-20.107 29.813-7.6267 63.093-7.6267 39.52 0 64.48 11.093 25.653 10.4 40.907 27.04 15.253 16.64 20.8 37.44 6.24 20.107 6.24 38.827 0 23.573-9.0133 42.293-9.0133 18.027-22.187 33.973t-29.12 30.507q-15.947 14.56-29.12 30.507-13.173 15.253-22.187 33.973-9.0133 18.027-9.0133 40.907 0 3.4667 0 7.6267 0 4.16 0.69333 7.6267h-54.08q-2.7733-13.867-2.7733-29.12 0-22.187 7.6267-40.213 8.32-18.027 20.8-33.28 12.48-15.947 26.347-29.12 13.867-13.867 26.347-27.733 12.48-13.867 20.107-29.12 8.32-15.253 8.32-33.28 0-29.12-18.72-47.147-18.72-18.72-54.773-18.72zm43.68 400.05q0 18.72-12.48 32.587-12.48 13.867-33.973 13.867-21.493 0-33.973-13.867t-12.48-32.587 12.48-32.587q12.48-13.867 33.973-13.867 21.493 0 33.973 13.867 12.48 13.867 12.48 32.587z" fill="#0076f6" stroke-opacity="0"/>
  </g>
  <g transform="matrix(.43423 -.17152 -.15953 -.41844 94.925 315.35)" clip-path="url(#clipPath4398-36)" fill="#f68000" stroke-opacity="0" style="shape-inside:url(#rect2933);white-space:pre" aria-label="?">
   <path d="m120.64 209.03q-45.76 0-89.44 23.573l-18.027-49.92q23.573-12.48 52.693-20.107 29.813-7.6267 63.093-7.6267 39.52 0 64.48 11.093 25.653 10.4 40.907 27.04 15.253 16.64 20.8 37.44 6.24 20.107 6.24 38.827 0 23.573-9.0133 42.293-9.0133 18.027-22.187 33.973t-29.12 30.507q-15.947 14.56-29.12 30.507-13.173 15.253-22.187 33.973-9.0133 18.027-9.0133 40.907 0 3.4667 0 7.6267 0 4.16 0.69333 7.6267h-54.08q-2.7733-13.867-2.7733-29.12 0-22.187 7.6267-40.213 8.32-18.027 20.8-33.28 12.48-15.947 26.347-29.12 13.867-13.867 26.347-27.733 12.48-13.867 20.107-29.12 8.32-15.253 8.32-33.28 0-29.12-18.72-47.147-18.72-18.72-54.773-18.72zm43.68 400.05q0 18.72-12.48 32.587-12.48 13.867-33.973 13.867-21.493 0-33.973-13.867t-12.48-32.587 12.48-32.587q12.48-13.867 33.973-13.867 21.493 0 33.973 13.867 12.48 13.867 12.48 32.587z" fill="#f68000" stroke-opacity="0"/>
  </g>
  <g transform="matrix(.51709 0 0 .48939 115.47 -126)" clip-path="url(#clipPath4398-3)" display="none" fill="#1600cb" stroke="#72005d" style="shape-inside:url(#rect2933);white-space:pre" aria-label="?">
   <path d="m120.64 209.03q-45.76 0-89.44 23.573l-18.027-49.92q23.573-12.48 52.693-20.107 29.813-7.6267 63.093-7.6267 39.52 0 64.48 11.093 25.653 10.4 40.907 27.04 15.253 16.64 20.8 37.44 6.24 20.107 6.24 38.827 0 23.573-9.0133 42.293-9.0133 18.027-22.187 33.973t-29.12 30.507q-15.947 14.56-29.12 30.507-13.173 15.253-22.187 33.973-9.0133 18.027-9.0133 40.907 0 3.4667 0 7.6267 0 4.16 0.69333 7.6267h-54.08q-2.7733-13.867-2.7733-29.12 0-22.187 7.6267-40.213 8.32-18.027 20.8-33.28 12.48-15.947 26.347-29.12 13.867-13.867 26.347-27.733 12.48-13.867 20.107-29.12 8.32-15.253 8.32-33.28 0-29.12-18.72-47.147-18.72-18.72-54.773-18.72zm43.68 400.05q0 18.72-12.48 32.587-12.48 13.867-33.973 13.867-21.493 0-33.973-13.867t-12.48-32.587 12.48-32.587q12.48-13.867 33.973-13.867 21.493 0 33.973 13.867 12.48 13.867 12.48 32.587z"/>
  </g>
 </g>
 <g>
  <ellipse cx="41.525" cy="35.385" rx="15.714" ry="14.562" fill="#f68000" stroke-opacity="0"/>
  <ellipse cx="146.41" cy="247.14" rx="15.714" ry="14.562" fill="#0076f6" stroke-opacity="0"/>
  <ellipse cx="219.95" cy="193.15" rx="15.714" ry="14.562" fill="#424242" stroke="#424242" stroke-linecap="round" stroke-linejoin="round" stroke-width=".70026"/>
  <text transform="matrix(.93198 -.48871 .54175 1.0874 -84.007 94.322)" x="180.55775" y="222.66714" clip-path="url(#clipPath9820)" fill="#424242" font-family="monospace" font-size="258.97px" stroke="#424242" stroke-linecap="square" stroke-width="2.4129" xml:space="preserve"><tspan x="180.55775" y="222.66714" fill="#424242" font-family="Ubuntu" font-size="258.97px" stroke="#424242" stroke-width="2.4129">!</tspan></text>
 </g>
</svg>
