<?xml version="1.0" encoding="UTF-8"?>
<!-- Created with Inkscape (http://www.inkscape.org/) -->
<svg width="250mm" height="270mm" version="1.1" viewBox="0 0 250 270" xmlns="http://www.w3.org/2000/svg">
 <g stroke-width="0">
  <path d="m125 29.618a107.14 105.38 0 0 0-107.14 105.38 107.14 105.38 0 0 0 107.14 105.38 107.14 105.38 0 0 0 107.14-105.38 107.14 105.38 0 0 0-107.14-105.38zm-5.1e-4 46.937a63.337 58.446 0 0 1 63.338 58.446 63.337 58.446 0 0 1-63.338 58.446 63.337 58.446 0 0 1-63.337-58.446 63.337 58.446 0 0 1 63.337-58.446z" fill="#f68000"/>
  <path d="m125 29.618a107.14 105.38 0 0 0-107.14 105.38 107.14 105.38 0 0 0 107.14 105.38 107.14 105.38 0 0 0 107.14-105.38 107.14 105.38 0 0 0-6.4363-35.963l-41.637 14.869a63.337 58.446 0 0 1 4.2721 21.093 63.337 58.446 0 0 1-63.337 58.446 63.337 58.446 0 0 1-63.337-58.446 63.337 58.446 0 0 1 63.337-58.446v-46.937z" fill="#0076f6"/>
 </g>
</svg>
