<?xml version="1.0" encoding="UTF-8"?>
<!-- Created with Inkscape (http://www.inkscape.org/) -->
<svg width="250mm" height="270mm" version="1.1" viewBox="0 0 250 270" xmlns="http://www.w3.org/2000/svg">
 <g stroke-width="0">
  <rect x="26.332" y="24.796" width="26.501" height="130.6" fill="#0076f6"/>
  <rect x="26.332" y="164.6" width="26.501" height="76.422" fill="#2011cc"/>
  <rect x="196.9" y="111.06" width="25.431" height="129.96" fill="#f68000"/>
  <path d="m49.593 41.225s24.888-1.857 45.962-1e-6c10.819 0.95335 13.315 11.264 22.378 10.963 7.487-0.24858 15.571-9.0025 24.222-10.862 16.61-3.5709 50.968-0.10026 50.968-0.10026v20.921s-24.947-4.0345-37.522-3.9145c-5.3235 0.05082-11.079-0.40114-15.851 1.9602-4.2366 2.0966-5.3813 8.813-9.92 10.134-12.417 3.6128-29.472-8.0943-37.775-8.8348-20.735-1.8494-42.462 0.65543-42.462 0.65543z" display="none" fill="#959595"/>
  <path d="m49.593 232.29s24.888 1.857 45.962 0c10.819-0.95335 6.6311-16.557 15.694-16.256 7.487 0.24858 19.62 13.372 30.906 16.156 16.495 4.0685 50.968 0.10026 50.968 0.10026v-20.921s-24.947 4.0345-37.522 3.9145c-5.3235-0.0508-10.912 0.0288-15.851-1.9602-7.1045-2.8615-11.125-11.353-18.392-13.773-7.7104-2.5669-17.26-2.7328-24.379 0-6.4857 2.4897-3.9591 16.118-7.9174 16.471-20.735 1.8494-39.468-4.6521-39.468-4.6521z" display="none" fill="#959595"/>
  <path d="m52.833 30.824s40.816-1.0798 61.99 5.6205c4.3292 1.3699 11.477 5.0875 15.805 9.7521 3.8106 4.1069 5.9748 9.8275 8.1618 15.208 6.9434 17.081 2.8154 41.187 15.479 53.543 2.7436 2.677 6.5166 3.5618 10.038 4.3245 4.0497 0.87703 8.4297 0.24121 12.375 0.20719 6.8684-0.0593 20.215-4.4481 20.215-4.4481v49.566s-29.742 3.2257-44.181 0c-11.541-2.5783-24.353-5.7938-32.582-15.167-13.334-15.188-6.1804-49.155-20.873-59.333-14.692-10.177-46.429 4.3804-46.429 4.3804z" fill="#00fff0"/>
 </g>
 <path d="m52.833 236.14s38.169-14.151 53.71-27.685c9.8044-8.5383 17.993-19.923 23.39-32.413 6.4424-14.908 4.4265-32.982 9.7314-48.436 4.8947-14.259 8.331-32.103 20.081-39.963 5.5306-3.6997 13.043-1.9661 19.351-0.45748 5.842 1.3972 16.185 8.581 16.185 8.581 4.2421-3.9289 0-66.638 0-66.638s-20.776 0.42636-31.097 1.6332c-4.3229 0.50551-8.6571 1.1482-12.869 2.344-4.782 1.3575-9.5594 2.9915-13.972 5.453-4.2178 2.353-8.4369 5.1655-12.478 8.0706-2.7318 1.9638-5.4071 4.0405-7.9377 6.3142-1.0099 0.90741-1.988 1.8671-2.8814 2.9152-5.5582 6.5207-11.902 12.922-15.331 20.88-11.539 26.775-2.4784 55.364-17.693 74.798-6.6881 8.5431-28.189 13.062-28.189 13.062z" fill="#ff9c00" fill-opacity=".69964" stroke="#825000" stroke-linecap="square" stroke-linejoin="round" stroke-opacity=".69804" stroke-width="1.0553e-8"/>
 <path d="m52.833 112.96s35.05-8.9867 56.224-2.2864c4.3292 1.3699 11.822 5.8413 16.246 10.862 3.2467 3.6849 5.1431 8.664 6.9312 13.427 5.1284 13.661 4.6528 29.592 10.648 42.807 3.1398 6.921 6.9303 14.301 12.896 18.3 7.0316 4.714 16.032 4.4687 24.232 4.8642 5.6481 0.27248 16.889-1.7306 16.889-1.7306l0.26862 34.712s-29.705 1.7943-43.576-3.12c-11.209-3.9714-22.164-10.882-30.05-20.602-12.013-14.808-8.7128-43.721-23.405-53.898-14.692-10.177-47.303-0.89995-47.303-0.89995z" fill="#a145fc" fill-opacity=".69804" stroke-width="0"/>
 <rect x="195.28" y="24.796" width="28.665" height="76.393" fill="#be4201" stroke-width="0"/>
</svg>
