<?xml version="1.0" encoding="UTF-8"?>
<!-- Created with Inkscape (http://www.inkscape.org/) -->
<svg width="250mm" height="270mm" version="1.1" viewBox="0 0 250 270" xmlns="http://www.w3.org/2000/svg">
 <g stroke-width="0">
  <path d="m95.95 128.05a32.127 32.598 0 0 0-22.377 9.2351l14.709 15.129a11.869 11.059 0 0 1 8.0858-3.3887v-20.97a32.127 32.598 0 0 0-0.41727-6e-3z" fill="#ff1493"/>
  <path d="m105.03 168.03a11.869 11.059 0 0 1-8.1948 3.0945 11.869 11.059 0 0 1-0.49989-0.0334l-0.2319 84.993a101.97 95.358 0 0 0 0.10213 5e-3 101.97 95.358 0 0 0 75.801-31.641z" fill="#32cd32"/>
  <path d="m108.65 160.73a11.869 11.059 0 0 1-3.6096 7.3072l82.389 69.399a121.33 116.3 0 0 0 30.11-76.567 121.33 116.3 0 0 0-2e-3 -0.13892z" fill="#157973"/>
  <path d="m88.107 167.53-54.088 44.497a89.19 76.793 0 0 0 62.055 25.363l0.25272-66.292a11.869 11.059 0 0 1-8.2205-3.5678z" fill="#ffc253"/>
  <path d="m85.014 160.75-71.583 0.0946a85.484 71.719 0 0 0 34.02 41.163l40.745-34.378a11.869 11.059 0 0 1-3.182-6.8795z" fill="#9400d3"/>
  <path d="m61.096 125.07a53.493 47.618 0 0 0-17.995 35.586 53.493 47.618 0 0 0 0.0063 0.15255l41.89-0.0552a11.869 11.059 0 0 1-0.02707-0.67895 11.869 11.059 0 0 1 3.2389-7.5871z" fill="#6495ed"/>
  <path d="m193.78 71.546-88.348 80.892a11.869 11.059 0 0 1 3.2798 7.632 11.869 11.059 0 0 1-0.0271 0.66399h126.9a139.38 125.4 0 0 0-41.806-89.188z" fill="#f68000"/>
  <path d="m96.367 17.407v131.64a11.869 11.059 0 0 1 0.47142-0.0382 11.869 11.059 0 0 1 8.5877 3.4282l100.39-91.914a153.1 143.33 0 0 0-109.45-43.117z" fill="#0076f6"/>
 </g>
</svg>
