<svg height="402pt" viewBox="0 0 402 402" width="402pt" xmlns="http://www.w3.org/2000/svg"><path d="m401.578125 32.640625c0 18.027344-14.613281 32.640625-32.636719 32.640625-18.027344 0-32.640625-14.613281-32.640625-32.640625s14.613281-32.640625 32.640625-32.640625c18.023438 0 32.636719 14.613281 32.636719 32.640625zm0 0" fill="#00efd1"/><path d="m392.578125 122.640625c0 18.027344-14.613281 32.640625-32.636719 32.640625-18.027344 0-32.640625-14.613281-32.640625-32.640625s14.613281-32.640625 32.640625-32.640625c18.023438 0 32.636719 14.613281 32.636719 32.640625zm0 0" fill="#00acea"/><path d="m372.578125 222.640625c0 18.027344-14.613281 32.640625-32.636719 32.640625-18.027344 0-32.640625-14.613281-32.640625-32.640625s14.613281-32.640625 32.640625-32.640625c18.023438 0 32.636719 14.613281 32.636719 32.640625zm0 0" fill="#00acea"/><path d="m352.578125 312.640625c0 18.027344-14.613281 32.640625-32.636719 32.640625-18.027344 0-32.640625-14.613281-32.640625-32.640625s14.613281-32.640625 32.640625-32.640625c18.023438 0 32.636719 14.613281 32.636719 32.640625zm0 0" fill="#fedb41"/><path d="m315.578125 65.640625c0 18.027344-14.613281 32.640625-32.636719 32.640625-18.027344 0-32.640625-14.613281-32.640625-32.640625s14.613281-32.640625 32.640625-32.640625c18.023438 0 32.636719 14.613281 32.636719 32.640625zm0 0" fill="#00acea"/><path d="m292.578125 172.640625c0 18.027344-14.613281 32.640625-32.636719 32.640625-18.027344 0-32.640625-14.613281-32.640625-32.640625s14.613281-32.640625 32.640625-32.640625c18.023438 0 32.636719 14.613281 32.636719 32.640625zm0 0" fill="#fedb41"/><path d="m272.578125 262.640625c0 18.027344-14.613281 32.640625-32.636719 32.640625-18.027344 0-32.640625-14.613281-32.640625-32.640625s14.613281-32.640625 32.640625-32.640625c18.023438 0 32.636719 14.613281 32.636719 32.640625zm0 0" fill="#00efd1"/><path d="m232.578125 92.640625c0 18.027344-14.613281 32.640625-32.636719 32.640625-18.027344 0-32.640625-14.613281-32.640625-32.640625s14.613281-32.640625 32.640625-32.640625c18.023438 0 32.636719 14.613281 32.636719 32.640625zm0 0" fill="#fedb41"/><path d="m192.578125 192.640625c0 18.027344-14.613281 32.640625-32.636719 32.640625-18.027344 0-32.640625-14.613281-32.640625-32.640625s14.613281-32.640625 32.640625-32.640625c18.023438 0 32.636719 14.613281 32.636719 32.640625zm0 0" fill="#00acea"/><path d="m182.578125 292.640625c0 18.027344-14.613281 32.640625-32.636719 32.640625-18.027344 0-32.640625-14.613281-32.640625-32.640625s14.613281-32.640625 32.640625-32.640625c18.023438 0 32.636719 14.613281 32.636719 32.640625zm0 0" fill="#00acea"/><path d="m132.578125 122.640625c0 18.027344-14.613281 32.640625-32.636719 32.640625-18.027344 0-32.640625-14.613281-32.640625-32.640625s14.613281-32.640625 32.640625-32.640625c18.023438 0 32.636719 14.613281 32.636719 32.640625zm0 0" fill="#00efd1"/><path d="m102.578125 232.640625c0 18.027344-14.613281 32.640625-32.636719 32.640625-18.027344 0-32.640625-14.613281-32.640625-32.640625s14.613281-32.640625 32.640625-32.640625c18.023438 0 32.636719 14.613281 32.636719 32.640625zm0 0" fill="#00efd1"/><path d="m102.578125 331.640625c0 18.027344-14.613281 32.640625-32.636719 32.640625-18.027344 0-32.640625-14.613281-32.640625-32.640625s14.613281-32.640625 32.640625-32.640625c18.023438 0 32.636719 14.613281 32.636719 32.640625zm0 0" fill="#fedb41"/><path d="m385.949219 402h-377.949219c-4.417969 0-8-3.582031-8-8v-373.480469c0-4.417969 3.582031-8 8-8s8 3.582031 8 8v365.480469h369.949219c4.417969 0 8 3.582031 8 8s-3.582031 8-8 8zm0 0" fill="#00acea"/></svg>