<?xml version="1.0" encoding="UTF-8" standalone="no"?>
<!-- Created with Inkscape (http://www.inkscape.org/) -->

<svg
   width="250mm"
   height="270mm"
   version="1.1"
   viewBox="0 0 250 270"
   id="svg419"
   sodipodi:docname="silzila_Transparent.svg"
   inkscape:version="1.2 (1:1.2.1+202207142221+cd75a1ee6d)"
   xmlns:inkscape="http://www.inkscape.org/namespaces/inkscape"
   xmlns:sodipodi="http://sodipodi.sourceforge.net/DTD/sodipodi-0.dtd"
   xmlns="http://www.w3.org/2000/svg"
   xmlns:svg="http://www.w3.org/2000/svg">
  <sodipodi:namedview
     id="namedview421"
     pagecolor="#ffffff"
     bordercolor="#000000"
     borderopacity="0.25"
     inkscape:showpageshadow="2"
     inkscape:pageopacity="0.0"
     inkscape:pagecheckerboard="0"
     inkscape:deskcolor="#d1d1d1"
     inkscape:document-units="mm"
     showgrid="false"
     inkscape:zoom="0.56334478"
     inkscape:cx="644.36561"
     inkscape:cy="528.09578"
     inkscape:window-width="1872"
     inkscape:window-height="1016"
     inkscape:window-x="48"
     inkscape:window-y="27"
     inkscape:window-maximized="1"
     inkscape:current-layer="svg419" />
  <defs
     id="defs411">
    <rect
       x="0"
       y="0"
       width="944.88189"
       height="1020.4724"
       id="rect2933" />
    <rect
       x="56.636351"
       y="145.56373"
       width="549.36988"
       height="-12.150109"
       id="rect2685" />
    <rect
       x="114.01974"
       y="254.00764"
       width="700.82282"
       height="583.12978"
       id="rect2671" />
    <rect
       x="134.23807"
       y="192.34628"
       width="674.16483"
       height="690.16148"
       id="rect653" />
    <clipPath
       id="clipPath10710">
      <path
         d="m0 0v270h134.95l-39.239-42.802-39.484 36.197-32.306-35.239 3.5894-3.2908 97.003-88.929 71.546 78.041-61.108 56.022h115.05v-270z"
         fill="#f600e2"
         fill-opacity=".89324"
         stroke="#f600ca"
         stroke-linecap="round"
         stroke-linejoin="round"
         stroke-width="2.202"
         id="path403" />
    </clipPath>
    <clipPath
       id="clipPath2002">
      <path
         d="m0 0v270h250v-270zm192.78 56.605 30.276 42.867 7.7003 67.234-41.551 53.553-49.131-67.347 18.476-53.494z"
         display="none"
         fill="#cb6a00"
         fill-opacity=".842"
         stroke="#0006cb"
         stroke-linecap="round"
         stroke-linejoin="round"
         stroke-width=".366"
         id="path406" />
      <path
         class="powerclip"
         d="m21.94 40.39h206.12v189.22h-206.12zm-21.94-40.39v270h250v-270zm192.78 56.605-34.23 42.812-18.476 53.494 49.131 67.347 41.551-53.553-7.7003-67.234z"
         fill="#cb6a00"
         fill-opacity=".842"
         stroke="#0006cb"
         stroke-linecap="round"
         stroke-linejoin="round"
         stroke-width=".366"
         id="path408" />
    </clipPath>
    <clipPath
       clipPathUnits="userSpaceOnUse"
       id="clipPath4398">
      <path
         id="path4400"
         style="fill:#00cba8;fill-opacity:0.578529;stroke:#72005d;stroke-width:0.727566;stroke-linecap:round;stroke-linejoin:round;stroke-opacity:1"
         d="M -126.03011,129.76865 V 681.47479 H 43.269524 V 550.48839 H 184.41169 v 130.9864 H 357.44897 V 129.76865 Z" />
    </clipPath>
    <clipPath
       clipPathUnits="userSpaceOnUse"
       id="clipPath4398-3">
      <path
         id="path4400-7"
         style="fill:#00cba8;fill-opacity:0.578529;stroke:#72005d;stroke-width:0.727566;stroke-linecap:round;stroke-linejoin:round;stroke-opacity:1"
         d="M -126.03011,129.76865 V 681.47479 H 43.269524 V 550.48839 H 184.41169 v 130.9864 H 357.44897 V 129.76865 Z" />
    </clipPath>
    <clipPath
       clipPathUnits="userSpaceOnUse"
       id="clipPath4398-36">
      <path
         id="path4400-1"
         style="fill:#00cba8;fill-opacity:0.578529;stroke:#72005d;stroke-width:0.727566;stroke-linecap:round;stroke-linejoin:round;stroke-opacity:1"
         d="M -126.03011,129.76865 V 681.47479 H 43.269524 V 550.48839 H 184.41169 v 130.9864 H 357.44897 V 129.76865 Z" />
    </clipPath>
    <clipPath
       clipPathUnits="userSpaceOnUse"
       id="clipPath9820">
      <path
         id="path9822"
         style="fill:#d96708;fill-opacity:0.424861;stroke:#000000;stroke-width:1.538;stroke-linecap:square;stroke-linejoin:miter;stroke-dasharray:none;stroke-opacity:1"
         d="M 0,0 V 253.18008 H 266.60899 V 0 Z m 216.34137,182.24844 a 32.135267,24.747266 0 0 1 32.13548,24.74708 32.135267,24.747266 0 0 1 -32.13548,24.74708 32.135267,24.747266 0 0 1 -32.13493,-24.74708 32.135267,24.747266 0 0 1 32.13493,-24.74708 z" />
    </clipPath>
  </defs>
  <g
     aria-label="?"
     transform="matrix(-0.4352628,0.16887419,0.15698789,0.41940662,94.797469,-33.142598)"
     id="text2931"
     clip-path="url(#clipPath4398)"
     style="font-size:693.333px;font-family:Ubuntu;-inkscape-font-specification:Ubuntu;white-space:pre;shape-inside:url(#rect2933);display:inline;fill:#0076f6;fill-opacity:0.2;stroke:#72005d;stroke-width:1.38331;stroke-linecap:round;stroke-linejoin:round;stroke-opacity:0">
    <path
       d="m 120.63994,209.03449 q -45.759975,0 -89.439955,23.57332 L 13.173327,182.68784 q 23.573322,-12.48 52.693309,-20.10666 29.813319,-7.62666 63.093304,-7.62666 39.51998,0 64.47997,11.09332 25.65332,10.4 40.90665,27.03999 15.25332,16.63999 20.79999,37.43998 6.23999,20.10666 6.23999,38.82665 0,23.57332 -9.01333,42.29332 -9.01332,18.02665 -22.18665,33.97331 -13.17333,15.94666 -29.11999,30.50666 -15.94666,14.55999 -29.11998,30.50665 -13.17333,15.25332 -22.18666,33.97332 -9.01333,18.02665 -9.01333,40.90664 0,3.46667 0,7.62667 0,4.15999 0.69333,7.62666 H 87.359959 q -2.773332,-13.86666 -2.773332,-29.11999 0,-22.18665 7.626663,-40.21331 8.32,-18.02666 20.79999,-33.27999 12.47999,-15.94666 26.34665,-29.11998 13.86666,-13.86666 26.34666,-27.73332 12.47999,-13.86666 20.10666,-29.11999 8.31999,-15.25333 8.31999,-33.27998 0,-29.11999 -18.71999,-47.14665 -18.71999,-18.71999 -54.77331,-18.71999 z m 43.67998,400.05315 q 0,18.71999 -12.47999,32.58665 -12.48,13.86666 -33.97332,13.86666 -21.493322,0 -33.973316,-13.86666 Q 71.4133,627.80763 71.4133,609.08764 q 0,-18.71999 12.479994,-32.58666 12.479994,-13.86666 33.973316,-13.86666 21.49332,0 33.97332,13.86666 12.47999,13.86667 12.47999,32.58666 z"
       id="path4419"
       style="fill:#0076f6;fill-opacity:0.2;stroke:#72005d;stroke-opacity:0" />
  </g>
  <g
     aria-label="?"
     transform="matrix(0.4342284,-0.17151647,-0.15953402,-0.41844475,94.924609,315.34683)"
     id="text2931-2"
     clip-path="url(#clipPath4398-36)"
     style="font-size:693.333px;font-family:Ubuntu;-inkscape-font-specification:Ubuntu;white-space:pre;shape-inside:url(#rect2933);display:inline;fill:#f68000;fill-opacity:0.2;stroke:#723b00;stroke-width:1.38331;stroke-linecap:round;stroke-linejoin:round;stroke-opacity:0">
    <path
       d="m 120.63994,209.03449 q -45.759975,0 -89.439955,23.57332 L 13.173327,182.68784 q 23.573322,-12.48 52.693309,-20.10666 29.813319,-7.62666 63.093304,-7.62666 39.51998,0 64.47997,11.09332 25.65332,10.4 40.90665,27.03999 15.25332,16.63999 20.79999,37.43998 6.23999,20.10666 6.23999,38.82665 0,23.57332 -9.01333,42.29332 -9.01332,18.02665 -22.18665,33.97331 -13.17333,15.94666 -29.11999,30.50666 -15.94666,14.55999 -29.11998,30.50665 -13.17333,15.25332 -22.18666,33.97332 -9.01333,18.02665 -9.01333,40.90664 0,3.46667 0,7.62667 0,4.15999 0.69333,7.62666 H 87.359959 q -2.773332,-13.86666 -2.773332,-29.11999 0,-22.18665 7.626663,-40.21331 8.32,-18.02666 20.79999,-33.27999 12.47999,-15.94666 26.34665,-29.11998 13.86666,-13.86666 26.34666,-27.73332 12.47999,-13.86666 20.10666,-29.11999 8.31999,-15.25333 8.31999,-33.27998 0,-29.11999 -18.71999,-47.14665 -18.71999,-18.71999 -54.77331,-18.71999 z m 43.67998,400.05315 q 0,18.71999 -12.47999,32.58665 -12.48,13.86666 -33.97332,13.86666 -21.493322,0 -33.973316,-13.86666 Q 71.4133,627.80763 71.4133,609.08764 q 0,-18.71999 12.479994,-32.58666 12.479994,-13.86666 33.973316,-13.86666 21.49332,0 33.97332,13.86666 12.47999,13.86667 12.47999,32.58666 z"
       id="path4419-93"
       style="fill:#f68000;fill-opacity:0.2;stroke:#723b00;stroke-opacity:0" />
  </g>
  <g
     aria-label="?"
     transform="matrix(0.51708595,0,0,0.48939106,115.47149,-125.99621)"
     id="text2931-5"
     clip-path="url(#clipPath4398-3)"
     style="font-size:693.333px;font-family:Ubuntu;-inkscape-font-specification:Ubuntu;white-space:pre;shape-inside:url(#rect2933);display:none;fill:#1600cb;stroke:#72005d;stroke-width:1.38331;stroke-linecap:round;stroke-linejoin:round">
    <path
       d="m 120.63994,209.03449 q -45.759975,0 -89.439955,23.57332 L 13.173327,182.68784 q 23.573322,-12.48 52.693309,-20.10666 29.813319,-7.62666 63.093304,-7.62666 39.51998,0 64.47997,11.09332 25.65332,10.4 40.90665,27.03999 15.25332,16.63999 20.79999,37.43998 6.23999,20.10666 6.23999,38.82665 0,23.57332 -9.01333,42.29332 -9.01332,18.02665 -22.18665,33.97331 -13.17333,15.94666 -29.11999,30.50666 -15.94666,14.55999 -29.11998,30.50665 -13.17333,15.25332 -22.18666,33.97332 -9.01333,18.02665 -9.01333,40.90664 0,3.46667 0,7.62667 0,4.15999 0.69333,7.62666 H 87.359959 q -2.773332,-13.86666 -2.773332,-29.11999 0,-22.18665 7.626663,-40.21331 8.32,-18.02666 20.79999,-33.27999 12.47999,-15.94666 26.34665,-29.11998 13.86666,-13.86666 26.34666,-27.73332 12.47999,-13.86666 20.10666,-29.11999 8.31999,-15.25333 8.31999,-33.27998 0,-29.11999 -18.71999,-47.14665 -18.71999,-18.71999 -54.77331,-18.71999 z m 43.67998,400.05315 q 0,18.71999 -12.47999,32.58665 -12.48,13.86666 -33.97332,13.86666 -21.493322,0 -33.973316,-13.86666 Q 71.4133,627.80763 71.4133,609.08764 q 0,-18.71999 12.479994,-32.58666 12.479994,-13.86666 33.973316,-13.86666 21.49332,0 33.97332,13.86666 12.47999,13.86667 12.47999,32.58666 z"
       id="path4419-9" />
  </g>
  <ellipse
     style="fill:#f68000;fill-opacity:0.2;stroke:#723b00;stroke-width:0.700263;stroke-linecap:round;stroke-linejoin:round;stroke-dasharray:none;stroke-opacity:0"
     id="path7707"
     cx="41.524555"
     cy="35.384708"
     rx="15.713692"
     ry="14.561612" />
  <ellipse
     style="fill:#0076f6;fill-opacity:0.2;stroke:#723b00;stroke-width:0.700263;stroke-linecap:round;stroke-linejoin:round;stroke-dasharray:none;stroke-opacity:0"
     id="path7707-1"
     cx="146.40652"
     cy="247.13864"
     rx="15.713692"
     ry="14.561612" />
  <ellipse
     style="fill:#424242;fill-opacity:0.2;stroke:#424242;stroke-width:0;stroke-linecap:round;stroke-linejoin:round;stroke-dasharray:none;stroke-opacity:1"
     id="path7707-1-3"
     cx="219.9548"
     cy="193.15207"
     rx="15.713692"
     ry="14.561612" />
  <text
     xml:space="preserve"
     style="font-style:normal;font-variant:normal;font-weight:normal;font-stretch:normal;font-size:258.974px;font-family:monospace;-inkscape-font-specification:monospace;fill:#424242;fill-opacity:0.2;stroke:#424242;stroke-width:0;stroke-linecap:square;stroke-linejoin:miter;stroke-dasharray:none;stroke-opacity:0.30000001"
     x="180.55775"
     y="222.66714"
     id="text8049"
     transform="matrix(0.93197963,-0.488709,0.5417466,1.0874217,-84.007235,94.32154)"
     clip-path="url(#clipPath9820)"><tspan
       sodipodi:role="line"
       id="tspan8047"
       style="font-style:normal;font-variant:normal;font-weight:normal;font-stretch:normal;font-size:258.974px;font-family:Ubuntu;-inkscape-font-specification:Ubuntu;fill:#424242;fill-opacity:0.2;stroke:#424242;stroke-width:0;stroke-dasharray:none;stroke-opacity:0.30000001"
       x="180.55775"
       y="222.66714">!</tspan></text>
</svg>
