<svg width="100" height="100" viewBox="0 0 100 100" fill="none" xmlns="http://www.w3.org/2000/svg">
<rect x="1" y="1" width="98" height="98" stroke="#808080" stroke-width="2"/>
<path d="M18.8713 53.6V26.48L20.6953 30.512L13.5433 33.872L12.1033 26.624L21.7033 21.92H26.9353V53.6H18.8713ZM12.7753 56V48.752H33.2233V56H12.7753ZM38.6702 56L37.0382 51.968L46.6862 41.312C47.2622 40.704 47.8702 40.016 48.5102 39.248C49.1502 38.48 49.7582 37.696 50.3342 36.896C50.9422 36.064 51.4222 35.264 51.7742 34.496C52.1582 33.728 52.3502 33.04 52.3502 32.432C52.3502 31.792 52.2062 31.232 51.9182 30.752C51.6622 30.272 51.2622 29.904 50.7182 29.648C50.2062 29.36 49.5342 29.216 48.7022 29.216C47.9982 29.216 47.3102 29.408 46.6382 29.792C45.9662 30.176 45.3262 30.752 44.7182 31.52C44.1422 32.256 43.5982 33.2 43.0862 34.352L37.0382 30.992C37.7102 29.136 38.6542 27.504 39.8702 26.096C41.1182 24.688 42.5742 23.584 44.2382 22.784C45.9022 21.984 47.6782 21.6 49.5662 21.632C51.5502 21.632 53.3262 22.048 54.8942 22.88C56.4942 23.712 57.7582 24.864 58.6862 26.336C59.6462 27.776 60.1262 29.472 60.1262 31.424C60.1262 32.288 59.9982 33.184 59.7422 34.112C59.5182 35.04 59.1342 36.032 58.5902 37.088C58.0782 38.112 57.3902 39.216 56.5262 40.4C55.6622 41.584 54.6062 42.864 53.3582 44.24L45.9182 52.352L44.9102 48.752H61.6142V56H38.6702ZM75.7671 56.48C73.0471 56.48 70.6791 55.92 68.6631 54.8C66.6471 53.648 64.7911 51.68 63.0951 48.896L69.0471 45.152C69.7191 46.24 70.4231 47.12 71.1591 47.792C71.9271 48.464 72.7111 48.96 73.5111 49.28C74.3431 49.568 75.1911 49.712 76.0551 49.712C76.9511 49.712 77.7671 49.52 78.5031 49.136C79.2391 48.72 79.8311 48.16 80.2791 47.456C80.7271 46.72 80.9511 45.872 80.9511 44.912C80.9511 43.92 80.7591 43.104 80.3751 42.464C79.9911 41.792 79.4311 41.28 78.6951 40.928C77.9591 40.576 77.0631 40.4 76.0071 40.4C75.5591 40.4 75.0471 40.464 74.4711 40.592C73.9271 40.688 73.3511 40.832 72.7431 41.024C72.1351 41.216 71.5111 41.44 70.8711 41.696L69.0951 36.944L77.1591 28.064L79.3671 29.312L65.4471 29.072V22.112H86.0871L87.6231 25.088L76.5351 36.944L74.6631 34.688C74.9191 34.592 75.3351 34.496 75.9111 34.4C76.4871 34.272 77.0311 34.208 77.5431 34.208C79.0151 34.208 80.4071 34.48 81.7191 35.024C83.0311 35.568 84.1991 36.32 85.2231 37.28C86.2471 38.24 87.0471 39.36 87.6231 40.64C88.1991 41.92 88.4871 43.312 88.4871 44.816C88.4871 47.056 87.9111 49.056 86.7591 50.816C85.6391 52.576 84.1191 53.968 82.1991 54.992C80.2791 55.984 78.1351 56.48 75.7671 56.48Z" fill="#808080"/>
<path d="M36.0078 76.0781L34.1094 78.2344V84H31.8945V66.9375H34.1094V75.2695L35.7617 73.207L40.7656 66.9375H43.4023L37.4375 74.4023L43.8008 84H41.1641L36.0078 76.0781ZM48.6992 77.1562V84H46.5312V66.9375H52.0625C52.8281 66.9531 53.5508 67.0742 54.2305 67.3008C54.918 67.5273 55.5195 67.8555 56.0352 68.2852C56.5508 68.7148 56.957 69.2461 57.2539 69.8789C57.5586 70.5117 57.7109 71.2383 57.7109 72.0586C57.7109 72.8789 57.5586 73.6055 57.2539 74.2383C56.957 74.8633 56.5508 75.3906 56.0352 75.8203C55.5195 76.25 54.918 76.5781 54.2305 76.8047C53.5508 77.0312 52.8281 77.1484 52.0625 77.1562H48.6992ZM48.6992 75.375H52.0625C52.5625 75.3672 53.0234 75.2891 53.4453 75.1406C53.8672 74.9844 54.2344 74.7656 54.5469 74.4844C54.8594 74.2031 55.1016 73.8633 55.2734 73.4648C55.4531 73.0586 55.543 72.5977 55.543 72.082C55.543 71.5664 55.4531 71.1016 55.2734 70.6875C55.1016 70.2734 54.8633 69.9219 54.5586 69.6328C54.2461 69.3438 53.875 69.1211 53.4453 68.9648C53.0234 68.8086 52.5625 68.7266 52.0625 68.7188H48.6992V75.375ZM60.7461 66.9375H71.0586V68.8242H66.9688V82.125H71.0586V84H60.7461V82.125H64.7422V68.8242H60.7461V66.9375Z" fill="#808080"/>
</svg>
