<?xml version="1.0" encoding="iso-8859-1"?>
<!-- Generator: Adobe Illustrator 19.0.0, SVG Export Plug-In . SVG Version: 6.00 Build 0)  -->
<svg version="1.1" id="Layer_1" xmlns="http://www.w3.org/2000/svg" xmlns:xlink="http://www.w3.org/1999/xlink" x="0px" y="0px"
	 viewBox="0 0 485.6 485.6" style="enable-background:new 0 0 485.6 485.6;" xml:space="preserve">
<path style="fill:#0CC69A;" d="M293.2,472.8c0,6.4-4.8,11.2-11.2,11.2h-78.4c-6.4,0-11.2-4.8-11.2-11.2V11.2
	c0-6.4,4.8-11.2,11.2-11.2H282c6.4,0,11.2,4.8,11.2,11.2V472.8z"/>
<path style="fill:#0AA397;" d="M192.4,11.2c0-6.4,4.8-11.2,11.2-11.2H282c6.4,0,11.2,4.8,11.2,11.2v461.6c0,6.4-4.8,11.2-11.2,11.2"
	/>
<path style="fill:#29E2B1;" d="M192.4,11.2c0-6.4,4.8-11.2,11.2-11.2H282c6.4,0,11.2,4.8,11.2,11.2"/>
<path style="fill:#99B5C1;" d="M316.4,479.2c0,4-3.2,6.4-6.4,6.4H175.6c-4,0-6.4-3.2-6.4-6.4l0,0c0-4,3.2-6.4,6.4-6.4h133.6
	C313.2,472.8,316.4,476,316.4,479.2L316.4,479.2z"/>
<path style="fill:#E23B14;" d="M170.8,472.8c0,6.4-4.8,11.2-11.2,11.2H81.2c-6.4,0-11.2-4.8-11.2-11.2V252c0-6.4,4.8-11.2,11.2-11.2
	h78.4c6.4,0,11.2,4.8,11.2,11.2V472.8z"/>
<path style="fill:#C62B0C;" d="M70,252c0-6.4,4.8-11.2,11.2-11.2h78.4c6.4,0,11.2,4.8,11.2,11.2v220.8c0,6.4-4.8,11.2-11.2,11.2"/>
<path style="fill:#EF533A;" d="M70,252c0-6.4,4.8-11.2,11.2-11.2h78.4c6.4,0,11.2,4.8,11.2,11.2"/>
<path style="fill:#99B5C1;" d="M194,479.2c0,4-3.2,6.4-6.4,6.4H53.2c-4,0-6.4-3.2-6.4-6.4l0,0c0-4,3.2-6.4,6.4-6.4h133.6
	C190.8,472.8,194,476,194,479.2L194,479.2z"/>
<path style="fill:#FFC200;" d="M415.6,472.8c0,6.4-4.8,11.2-11.2,11.2H326c-6.4,0-11.2-4.8-11.2-11.2V172c0-6.4,4.8-11.2,11.2-11.2
	h78.4c6.4,0,11.2,4.8,11.2,11.2V472.8z"/>
<path style="fill:#FFA300;" d="M314.8,172c0-6.4,4.8-11.2,11.2-11.2h78.4c6.4,0,11.2,4.8,11.2,11.2v300.8c0,6.4-4.8,11.2-11.2,11.2"
	/>
<path style="fill:#FFE75A;" d="M314.8,172c0-6.4,4.8-11.2,11.2-11.2h78.4c6.4,0,11.2,4.8,11.2,11.2"/>
<path style="fill:#99B5C1;" d="M438.8,479.2c0,4-3.2,6.4-6.4,6.4H298c-4,0-6.4-3.2-6.4-6.4l0,0c0-4,3.2-6.4,6.4-6.4h133.6
	C435.6,472.8,438.8,476,438.8,479.2L438.8,479.2z"/>
<g>
</g>
<g>
</g>
<g>
</g>
<g>
</g>
<g>
</g>
<g>
</g>
<g>
</g>
<g>
</g>
<g>
</g>
<g>
</g>
<g>
</g>
<g>
</g>
<g>
</g>
<g>
</g>
<g>
</g>
</svg>
