<svg class="svg-icon"  style="width:1em;height:1em;vertical-align: middle;fill: currentColor;overflow: hidden;" viewBox="0 0 1024 1024" version="1.1" xmlns="http://www.w3.org/2000/svg"><path d="M648.385442 223.320735l-140.733449 97.07591-140.733449-16.50468-140.733449 19.432929-139.579896-63.090468-5.32409 1.331023 0.621144 625.22565h849.281109v-718.752167l-143.306759 39.753207-139.491161 15.528596z" fill="#5c6bc0" /><path d="M84.830503 491.033733l-3.726863 0.17747 0.621143 396.02357 849.369844-1.508492v-400.549047l-142.330676 33.719237-139.313691-98.495667-141.354593 53.329636-139.934835-44.189948-142.064472 34.429116-141.265857 27.064125z" fill="#ec407a" /><path d="M931.094627 591.925241l-145.34766-5.767764-137.982669-37.97851-140.733449-9.672097-139.402426 68.237088-139.846101-20.675216-142.330676 5.767764-4.348006-1.064818-0.35494 296.285615 850.345927-1.419757v-293.712305z" fill="#ffee58" /><path d="M81.014905 697.60843l-0.443674 189.448873h850.523396v-195.571577l-140.467244 14.463778-141.354593-14.463778-141.443327-31.323397-140.02357 18.101907-142.241942 13.22149-141.265857 5.767764-3.283189 0.35494z" fill="#8bc34a" /><path d="M84.209359 818.642745l-3.460659-0.532409-0.177469 68.503293 850.523396 1.153553v-43.568804l-140.467244-25.555633-141.354593-70.544194-141.443327-34.251646-142.153207 59.27487-140.02357 18.634315-141.443327 26.886655z" fill="#03a9f4" /><path d="M941.831542 914.387633l-5.679029-6.832583 18.368111-15.262391H76.400693v-766.846448l-15.351126 17.746968-6.743848-5.767765 26.97539-31.234662 26.088042 31.323397-6.832583 5.67903-15.262391-18.368111v758.594107H953.89948l-17.746967-15.351126 5.767764-6.743848 31.234662 26.97539z" fill="#666666" /><path d="M930.984596 847.777054l-141.177123-25.644368-0.532409-0.266204-140.910918-70.366725-139.579896-33.807972-141.354593 58.919931-0.621144 0.088735-139.934835 18.634315-141.265858 26.886655-1.597227-8.429809 141.532062-26.97539h0.088735l139.491161-18.545581 142.95182-59.629809 143.306759 34.784055 0.354939 0.17747 140.822184 70.27799 139.934835 25.466897z" fill="#52A1CD" /><path d="M81.880957 806.518905c-7.187522 0-12.955286 5.767764-12.955286 12.955286s5.767764 12.955286 12.955286 12.955286 12.955286-5.767764 12.955286-12.955286-5.767764-12.955286-12.955286-12.955286z" fill="#52A1CD" /><path d="M81.880957 812.109199c-4.081802 0-7.453726 3.283189-7.453726 7.453726 0 4.081802 3.283189 7.453726 7.453726 7.453727 4.081802 0 7.453726-3.283189 7.453726-7.453727s-3.371924-7.453726-7.453726-7.453726z" fill="#FFFFFF" /><path d="M222.643688 781.227702c-7.187522 0-12.955286 5.767764-12.955286 12.955286s5.767764 12.955286 12.955286 12.955286 12.955286-5.767764 12.955286-12.955286-5.767764-12.955286-12.955286-12.955286z" fill="#52A1CD" /><path d="M215.278697 794.182988c0 4.081802 3.283189 7.453726 7.453726 7.453726 4.081802 0 7.453726-3.283189 7.453726-7.453726 0-4.081802-3.283189-7.453726-7.453726-7.453726-4.170537 0.088735-7.453726 3.371924-7.453726 7.453726z" fill="#FFFFFF" /><path d="M363.967224 759.867452c-7.187522 0-12.955286 5.767764-12.955286 12.955286s5.767764 12.955286 12.955286 12.955286 12.955286-5.767764 12.955286-12.955286-5.767764-12.955286-12.955286-12.955286z" fill="#52A1CD" /><path d="M363.967224 765.457747c-4.081802 0-7.453726 3.283189-7.453727 7.453726 0 4.081802 3.283189 7.453726 7.453727 7.453726 4.081802 0 7.453726-3.283189 7.453726-7.453726s-3.371924-7.453726-7.453726-7.453726z" fill="#FFFFFF" /><path d="M507.829463 701.364575c-7.187522 0-12.955286 5.767764-12.955286 12.955286s5.767764 12.955286 12.955286 12.955286 12.955286-5.767764 12.955286-12.955286-5.767764-12.955286-12.955286-12.955286z" fill="#52A1CD" /><path d="M507.829463 721.773588c4.081802 0 7.453726-3.283189 7.453726-7.453727 0-4.081802-3.283189-7.453726-7.453726-7.453726-4.081802 0-7.453726 3.283189-7.453726 7.453726 0.088735 4.081802 3.371924 7.453726 7.453726 7.453727z" fill="#FFFFFF" /><path d="M646.054378 734.575362c-7.187522 0-12.955286 5.767764-12.955286 12.955286s5.767764 12.955286 12.955286 12.955286 12.955286-5.767764 12.955286-12.955286-5.767764-12.955286-12.955286-12.955286z" fill="#52A1CD" /><path d="M646.054378 740.165657c-4.081802 0-7.453726 3.283189-7.453726 7.453726 0 4.081802 3.283189 7.453726 7.453726 7.453726 4.081802 0 7.453726-3.283189 7.453726-7.453726s-3.371924-7.453726-7.453726-7.453726z" fill="#FFFFFF" /><path d="M787.097511 806.518905c-7.187522 0-12.955286 5.767764-12.955286 12.955286s5.767764 12.955286 12.955286 12.955286 12.955286-5.767764 12.955286-12.955286-5.767764-12.955286-12.955286-12.955286z" fill="#52A1CD" /><path d="M787.097511 812.109199c-4.081802 0-7.453726 3.283189-7.453726 7.453726 0 4.081802 3.283189 7.453726 7.453726 7.453727 4.081802 0 7.453726-3.283189 7.453726-7.453727s-3.371924-7.453726-7.453726-7.453726z" fill="#FFFFFF" /><path d="M915.776333 844.765393c0 7.187522 5.767764 12.955286 12.955286 12.955286s12.955286-5.767764 12.955286-12.955286-5.767764-12.955286-12.955286-12.955286-12.955286 5.767764-12.955286 12.955286z" fill="#52A1CD" /><path d="M928.731619 837.400402c-4.081802 0-7.453726 3.283189-7.453726 7.453726 0 4.081802 3.283189 7.453726 7.453726 7.453726 4.081802 0 7.453726-3.283189 7.453726-7.453726s-3.371924-7.453726-7.453726-7.453726z" fill="#FFFFFF" /><path d="M791.227231 707.628367l-0.443675-0.088734-141.620797-14.463779h-0.266204l-140.644714-31.234662-139.491162 18.101907-142.41941 13.22149h-0.088735l-141.265858 5.767765-0.354939-8.607279 141.177123-5.767765 142.064471-13.22149 140.733449-18.190641 141.975736 31.412131 140.644715 14.375044 140.02357-14.375044 0.887348 8.607279z" fill="#94D656" /><path d="M81.880957 683.370038c-7.187522 0-12.955286 5.767764-12.955286 12.955286s5.767764 12.955286 12.955286 12.955286 12.955286-5.767764 12.955286-12.955286-5.767764-12.955286-12.955286-12.955286z" fill="#94D656" /><path d="M81.880957 688.960333c-4.081802 0-7.453726 3.283189-7.453726 7.453726 0 4.081802 3.283189 7.453726 7.453726 7.453726 4.081802 0 7.453726-3.283189 7.453726-7.453726s-3.371924-7.453726-7.453726-7.453726z" fill="#FFFFFF" /><path d="M222.92409 674.874565c-7.187522 0-12.955286 5.767764-12.955286 12.955286s5.767764 12.955286 12.955286 12.955286 12.955286-5.767764 12.955286-12.955286-5.767764-12.955286-12.955286-12.955286z" fill="#94D656" /><path d="M215.559099 687.829851c0 4.081802 3.283189 7.453726 7.453726 7.453726 4.081802 0 7.453726-3.283189 7.453726-7.453726 0-4.081802-3.283189-7.453726-7.453726-7.453726-4.170537 0.088735-7.453726 3.371924-7.453726 7.453726z" fill="#FFFFFF" /><path d="M363.967224 662.228076c-7.187522 0-12.955286 5.767764-12.955286 12.955286s5.767764 12.955286 12.955286 12.955286 12.955286-5.767764 12.955286-12.955286-5.767764-12.955286-12.955286-12.955286z" fill="#94D656" /><path d="M363.967224 667.818371c-4.081802 0-7.453726 3.283189-7.453727 7.453726 0 4.081802 3.283189 7.453726 7.453727 7.453726 4.081802 0 7.453726-3.283189 7.453726-7.453726s-3.371924-7.453726-7.453726-7.453726z" fill="#FFFFFF" /><path d="M508.170205 647.466149c-7.187522 0-12.955286 5.767764-12.955286 12.955286s5.767764 12.955286 12.955286 12.955286 12.955286-5.767764 12.955285-12.955286-5.767764-12.955286-12.955285-12.955286z" fill="#94D656" /><path d="M508.170205 667.875161c4.081802 0 7.453726-3.283189 7.453726-7.453726 0-4.081802-3.283189-7.453726-7.453726-7.453726-4.081802 0-7.453726 3.283189-7.453727 7.453726 0.088735 4.081802 3.371924 7.453726 7.453727 7.453726z" fill="#FFFFFF" /><path d="M646.054378 674.874565c-7.187522 0-12.955286 5.767764-12.955286 12.955286s5.767764 12.955286 12.955286 12.955286 12.955286-5.767764 12.955286-12.955286-5.767764-12.955286-12.955286-12.955286z" fill="#94D656" /><path d="M646.054378 680.46486c-4.081802 0-7.453726 3.283189-7.453726 7.453726 0 4.081802 3.283189 7.453726 7.453726 7.453726 4.081802 0 7.453726-3.283189 7.453726-7.453726s-3.371924-7.453726-7.453726-7.453726z" fill="#FFFFFF" /><path d="M787.097511 687.520166c-7.187522 0-12.955286 5.767764-12.955286 12.955286s5.767764 12.955286 12.955286 12.955286 12.955286-5.767764 12.955286-12.955286-5.767764-12.955286-12.955286-12.955286z" fill="#94D656" /><path d="M787.097511 693.110461c-4.081802 0-7.453726 3.283189-7.453726 7.453726 0 4.081802 3.283189 7.453726 7.453726 7.453726 4.081802 0 7.453726-3.283189 7.453726-7.453726s-3.371924-7.453726-7.453726-7.453726z" fill="#FFFFFF" /><path d="M915.185359 687.829851c0 7.187522 5.767764 12.955286 12.955286 12.955286s12.955286-5.767764 12.955286-12.955286-5.767764-12.955286-12.955286-12.955286-12.955286 5.767764-12.955286 12.955286z" fill="#94D656" /><path d="M928.140645 680.46486c-4.081802 0-7.453726 3.283189-7.453726 7.453726 0 4.081802 3.283189 7.453726 7.453726 7.453726 4.081802 0 7.453726-3.283189 7.453726-7.453726s-3.371924-7.453726-7.453726-7.453726z" fill="#FFFFFF" /><path d="M369.973685 611.22418l-1.242288-0.177469-140.20104-20.586482-142.59688 5.767764-0.35494-8.607279 143.395494-5.856499 0.35494 0.088735 139.313691 20.497747 139.846101-68.148354 1.153552 0.088735 141.887002 9.672097 0.354939 0.088735 138.248874 37.80104 145.52513 5.767764-0.354939 8.607279-146.501214-5.856499-0.532409-0.088735-138.160138-37.80104-139.934836-9.583362z" fill="#E9BA5D" /><path d="M81.58547 577.193484c-7.187522 0-12.955286 5.767764-12.955286 12.955285s5.767764 12.955286 12.955286 12.955286 12.955286-5.767764 12.955286-12.955286-5.767764-12.955286-12.955286-12.955285z" fill="#E9BA5D" /><path d="M81.58547 582.783778c-4.081802 0-7.453726 3.283189-7.453726 7.453726 0 4.081802 3.283189 7.453726 7.453726 7.453727 4.081802 0 7.453726-3.283189 7.453726-7.453727s-3.371924-7.453726-7.453726-7.453726z" fill="#FFFFFF" /><path d="M222.628603 572.747868c-7.187522 0-12.955286 5.767764-12.955286 12.955286s5.767764 12.955286 12.955286 12.955286 12.955286-5.767764 12.955286-12.955286-5.767764-12.955286-12.955286-12.955286z" fill="#E9BA5D" /><path d="M215.263612 585.703154c0 4.081802 3.283189 7.453726 7.453726 7.453726 4.081802 0 7.453726-3.283189 7.453726-7.453726 0-4.081802-3.283189-7.453726-7.453726-7.453726-4.170537 0.088735-7.453726 3.371924-7.453726 7.453726z" fill="#FFFFFF" /><path d="M363.671737 592.075203c-7.187522 0-12.955286 5.767764-12.955286 12.955286s5.767764 12.955286 12.955286 12.955286 12.955286-5.767764 12.955286-12.955286-5.767764-12.955286-12.955286-12.955286z" fill="#E9BA5D" /><path d="M363.671737 597.665497c-4.081802 0-7.453726 3.283189-7.453727 7.453727 0 4.081802 3.283189 7.453726 7.453727 7.453726 4.081802 0 7.453726-3.283189 7.453726-7.453726s-3.371924-7.453726-7.453726-7.453727z" fill="#FFFFFF" /><path d="M504.71487 529.588132c-7.187522 0-12.955286 5.767764-12.955286 12.955286s5.767764 12.955286 12.955286 12.955286 12.955286-5.767764 12.955286-12.955286-5.767764-12.955286-12.955286-12.955286z" fill="#E9BA5D" /><path d="M504.71487 549.997144c4.081802 0 7.453726-3.283189 7.453726-7.453726 0-4.081802-3.283189-7.453726-7.453726-7.453726-4.081802 0-7.453726 3.283189-7.453726 7.453726 0.088735 4.081802 3.371924 7.453726 7.453726 7.453726z" fill="#FFFFFF" /><path d="M651.174378 537.809414c-7.187522 0-12.955286 5.767764-12.955286 12.955286s5.767764 12.955286 12.955286 12.955286 12.955286-5.767764 12.955286-12.955286-5.767764-12.955286-12.955286-12.955286z" fill="#E9BA5D" /><path d="M651.174378 543.399709c-4.081802 0-7.453726 3.283189-7.453726 7.453726 0 4.081802 3.283189 7.453726 7.453726 7.453726 4.081802 0 7.453726-3.283189 7.453726-7.453726s-3.371924-7.453726-7.453726-7.453726z" fill="#FFFFFF" /><path d="M786.802024 572.747868c-7.187522 0-12.955286 5.767764-12.955286 12.955286s5.767764 12.955286 12.955286 12.955286 12.955286-5.767764 12.955286-12.955286-5.767764-12.955286-12.955286-12.955286z" fill="#E9BA5D" /><path d="M786.802024 578.338163c-4.081802 0-7.453726 3.283189-7.453726 7.453726 0 4.081802 3.283189 7.453726 7.453726 7.453726 4.081802 0 7.453726-3.283189 7.453726-7.453726s-3.371924-7.453726-7.453726-7.453726z" fill="#FFFFFF" /><path d="M914.889872 592.384887c0 7.187522 5.767764 12.955286 12.955286 12.955286s12.955286-5.767764 12.955286-12.955286-5.767764-12.955286-12.955286-12.955286-12.955286 5.767764-12.955286 12.955286z" fill="#E9BA5D" /><path d="M927.845158 585.019896c-4.081802 0-7.453726 3.283189-7.453726 7.453726 0 4.081802 3.283189 7.453726 7.453726 7.453726 4.081802 0 7.453726-3.283189 7.453726-7.453726s-3.371924-7.453726-7.453726-7.453726z" fill="#FFFFFF" /><path d="M789.00886 519.460825l-139.136222-98.318198-140.733449 53.063432-140.289775-44.278683-141.088388 34.162912-0.088735 0.088735-141.443327 26.886655-1.597227-8.42981 141.265857-26.886655 143.218025-34.784055 139.757365 44.101213 142.241941-53.595841 139.668631 98.673137 140.55598-33.275563 1.952166 8.341075z" fill="#D85780" /><path d="M81.880957 472.804936c-7.187522 0-12.955286 5.767764-12.955286 12.955286s5.767764 12.955286 12.955286 12.955286 12.955286-5.767764 12.955286-12.955286-5.767764-12.955286-12.955286-12.955286z" fill="#D85780" /><path d="M81.880957 478.395231c-4.081802 0-7.453726 3.283189-7.453726 7.453726 0 4.081802 3.283189 7.453726 7.453726 7.453726 4.081802 0 7.453726-3.283189 7.453726-7.453726s-3.371924-7.453726-7.453726-7.453726z" fill="#FFFFFF" /><path d="M363.967224 416.308354c-7.187522 0-12.955286 5.767764-12.955286 12.955286s5.767764 12.955286 12.955286 12.955285 12.955286-5.767764 12.955286-12.955285-5.767764-12.955286-12.955286-12.955286z" fill="#D85780" /><path d="M356.602232 429.26364c0 4.081802 3.283189 7.453726 7.453726 7.453726 4.081802 0 7.453726-3.283189 7.453727-7.453726 0-4.081802-3.283189-7.453726-7.453727-7.453727-4.170537 0.088735-7.453726 3.371924-7.453726 7.453727z" fill="#FFFFFF" /><path d="M222.92409 447.512846c-7.187522 0-12.955286 5.767764-12.955286 12.955286s5.767764 12.955286 12.955286 12.955286 12.955286-5.767764 12.955286-12.955286-5.767764-12.955286-12.955286-12.955286z" fill="#D85780" /><path d="M222.92409 453.10314c-4.081802 0-7.453726 3.283189-7.453726 7.453727 0 4.081802 3.283189 7.453726 7.453726 7.453726 4.081802 0 7.453726-3.283189 7.453726-7.453726s-3.371924-7.453726-7.453726-7.453727z" fill="#FFFFFF" /><path d="M505.011244 454.663986c-7.187522 0-12.955286 5.767764-12.955286 12.955286s5.767764 12.955286 12.955286 12.955286 12.955286-5.767764 12.955286-12.955286-5.767764-12.955286-12.955286-12.955286z" fill="#D85780" /><path d="M505.011244 475.072998c4.081802 0 7.453726-3.283189 7.453727-7.453726 0-4.081802-3.283189-7.453726-7.453727-7.453726-4.081802 0-7.453726 3.283189-7.453726 7.453726 0.088735 4.081802 3.371924 7.453726 7.453726 7.453726z" fill="#FFFFFF" /><path d="M646.054378 403.661865c-7.187522 0-12.955286 5.767764-12.955286 12.955286s5.767764 12.955286 12.955286 12.955286 12.955286-5.767764 12.955286-12.955286-5.767764-12.955286-12.955286-12.955286z" fill="#D85780" /><path d="M646.054378 409.252159c-4.081802 0-7.453726 3.283189-7.453726 7.453727 0 4.081802 3.283189 7.453726 7.453726 7.453726 4.081802 0 7.453726-3.283189 7.453726-7.453726s-3.371924-7.453726-7.453726-7.453727z" fill="#FFFFFF" /><path d="M787.097511 502.123813c-7.187522 0-12.955286 5.767764-12.955286 12.955286s5.767764 12.955286 12.955286 12.955286 12.955286-5.767764 12.955286-12.955286-5.767764-12.955286-12.955286-12.955286z" fill="#D85780" /><path d="M787.097511 507.714107c-4.081802 0-7.453726 3.283189-7.453726 7.453727 0 4.081802 3.283189 7.453726 7.453726 7.453726 4.081802 0 7.453726-3.283189 7.453726-7.453726s-3.371924-7.453726-7.453726-7.453727z" fill="#FFFFFF" /><path d="M915.185359 480.264873c0 7.187522 5.767764 12.955286 12.955286 12.955286s12.955286-5.767764 12.955286-12.955286-5.767764-12.955286-12.955286-12.955285-12.955286 5.767764-12.955286 12.955285z" fill="#D85780" /><path d="M928.140645 472.899882c-4.081802 0-7.453726 3.283189-7.453726 7.453726 0 4.081802 3.283189 7.453726 7.453726 7.453726 4.081802 0 7.453726-3.283189 7.453726-7.453726s-3.371924-7.453726-7.453726-7.453726z" fill="#FFFFFF" /><path d="M220.508728 331.239154l-140.644714-63.622877 3.549393-7.808665 138.337609 62.558059 140.112305-19.344194 0.532409 0.088734 139.136221 16.32721 140.289775-96.72097 140.289775-15.617331 142.95182-39.664472 2.307105 8.25234-143.661698 39.930676-138.781283 15.439861-141.177123 97.25338-141.798267-16.593415z" fill="#526ECD" /><path d="M80.494919 251.088527c-7.187522 0-12.955286 5.767764-12.955286 12.955286s5.767764 12.955286 12.955286 12.955286 12.955286-5.767764 12.955286-12.955286-5.767764-12.955286-12.955286-12.955286z" fill="#526ECD" /><path d="M80.494919 256.678821c-4.081802 0-7.453726 3.283189-7.453727 7.453727 0 4.081802 3.283189 7.453726 7.453727 7.453726 4.081802 0 7.453726-3.283189 7.453726-7.453726s-3.371924-7.453726-7.453726-7.453727z" fill="#FFFFFF" /><path d="M220.279792 311.478794c-7.187522 0-12.955286 5.767764-12.955286 12.955286s5.767764 12.955286 12.955286 12.955286 12.955286-5.767764 12.955286-12.955286-5.767764-12.955286-12.955286-12.955286z" fill="#526ECD" /><path d="M220.279792 317.069088c-4.081802 0-7.453726 3.283189-7.453726 7.453727 0 4.081802 3.283189 7.453726 7.453726 7.453726 4.081802 0 7.453726-3.283189 7.453726-7.453726s-3.371924-7.453726-7.453726-7.453727z" fill="#FFFFFF" /><path d="M364.730343 293.210953c-7.187522 0-12.955286 5.767764-12.955286 12.955286s5.767764 12.955286 12.955286 12.955286 12.955286-5.767764 12.955286-12.955286-5.767764-12.955286-12.955286-12.955286z" fill="#526ECD" /><path d="M364.730343 298.801248c-4.081802 0-7.453726 3.283189-7.453726 7.453726 0 4.081802 3.283189 7.453726 7.453726 7.453726 4.081802 0 7.453726-3.283189 7.453726-7.453726s-3.371924-7.453726-7.453726-7.453726z" fill="#FFFFFF" /><path d="M503.826634 311.478794c-7.187522 0-12.955286 5.767764-12.955286 12.955286s5.767764 12.955286 12.955286 12.955286 12.955286-5.767764 12.955286-12.955286-5.767764-12.955286-12.955286-12.955286z" fill="#526ECD" /><path d="M503.826634 331.887806c4.081802 0 7.453726-3.283189 7.453726-7.453726 0-4.081802-3.283189-7.453726-7.453726-7.453726-4.081802 0-7.453726 3.283189-7.453726 7.453726 0.088735 4.081802 3.371924 7.453726 7.453726 7.453726z" fill="#FFFFFF" /><path d="M643.970884 214.019549c-7.187522 0-12.955286 5.767764-12.955286 12.955286s5.767764 12.955286 12.955286 12.955286 12.955286-5.767764 12.955286-12.955286-5.767764-12.955286-12.955286-12.955286z" fill="#526ECD" /><path d="M643.970884 219.609844c-4.081802 0-7.453726 3.283189-7.453726 7.453726 0 4.081802 3.283189 7.453726 7.453726 7.453726 4.081802 0 7.453726-3.283189 7.453726-7.453726s-3.371924-7.453726-7.453726-7.453726z" fill="#FFFFFF" /><path d="M785.983889 196.949629c-7.187522 0-12.955286 5.767764-12.955286 12.955286s5.767764 12.955286 12.955286 12.955286 12.955286-5.767764 12.955286-12.955286-5.767764-12.955286-12.955286-12.955286z" fill="#526ECD" />
<path d="M785.983889 202.539924c-4.081802 0-7.453726 3.283189-7.453726 7.453726 0 4.081802 3.283189 7.453726 7.453726 7.453726 4.081802 0 7.453726-3.283189 7.453726-7.453726s-3.371924-7.453726-7.453726-7.453726z" fill="#FFFFFF" /><path d="M914.000749 169.53234c0 7.187522 5.767764 12.955286 12.955286 12.955286s12.955286-5.767764 12.955286-12.955286-5.767764-12.955286-12.955286-12.955286-12.955286 5.767764-12.955286 12.955286z" fill="#526ECD" /><path d="M926.956035 162.167348c-4.081802 0-7.453726 3.283189-7.453727 7.453727 0 4.081802 3.283189 7.453726 7.453727 7.453726 4.081802 0 7.453726-3.283189 7.453726-7.453726s-3.371924-7.453726-7.453726-7.453727z" fill="#FFFFFF" /></svg>