<svg class="svg-icon" style="width: 1em; height: 1em;vertical-align: middle;fill: currentColor;overflow: hidden;" viewBox="0 0 1024 1024" version="1.1" xmlns="http://www.w3.org/2000/svg"><path d="M384 832H128a32 32 0 0 1 0-64h224v-96a32 32 0 0 1 32-32h224v-96a32 32 0 0 1 32-32h256a32 32 0 0 1 0 64h-224v96a32 32 0 0 1-32 32h-224v96a32 32 0 0 1-32 32z" fill="#3BD5B3" /><path d="M384 512H128a32 32 0 0 1 0-64h224v-96a32 32 0 0 1 32-32h224V224a32 32 0 0 1 32-32h256a32 32 0 0 1 0 64h-224v96a32 32 0 0 1-32 32h-224v96a32 32 0 0 1-32 32z" fill="#4A8BFE" /></svg>