<svg width="646" height="328" viewBox="0 0 646 328" fill="none" xmlns="http://www.w3.org/2000/svg">
<path d="M548.051 163.995C545.817 163.995 542.836 163.995 540.599 163.995C540.599 131.402 522.717 101.469 493.653 82.8429C463.849 64.2196 425.844 59.5631 391.566 70.2058C363.249 20.9815 300.657 -4.29547 241.042 8.34435C181.431 20.9815 138.21 68.8761 138.21 124.087C138.21 124.087 138.21 124.751 138.21 125.416C97.2262 119.43 56.2423 134.729 30.9065 163.995C6.31618 193.929 1.84523 233.175 18.9839 266.435C36.868 299.693 74.1261 321.646 115.11 323.64V324.305H547.307C596.487 324.305 636.726 288.386 636.726 244.485C636.726 200.582 597.234 163.995 548.051 163.995Z" fill="white"/>
<path d="M230.945 137C230.539 137 230.209 136.872 229.953 136.616C229.697 136.36 229.569 136.029 229.569 135.624V113.384C229.569 112.979 229.697 112.648 229.953 112.392C230.209 112.136 230.539 112.008 230.945 112.008C231.35 112.008 231.681 112.136 231.937 112.392C232.193 112.648 232.321 112.979 232.321 113.384V135.624C232.321 136.029 232.193 136.36 231.937 136.616C231.681 136.872 231.35 137 230.945 137ZM253.349 137C252.943 137 252.613 136.872 252.357 136.616C252.101 136.36 251.973 136.04 251.973 135.656V127.496C251.973 126.195 251.727 125.139 251.237 124.328C250.767 123.496 250.117 122.877 249.285 122.472C248.453 122.045 247.503 121.832 246.437 121.832C245.434 121.832 244.527 122.035 243.717 122.44C242.927 122.824 242.298 123.357 241.829 124.04C241.359 124.701 241.125 125.469 241.125 126.344H239.269C239.311 125 239.663 123.805 240.325 122.76C241.007 121.693 241.914 120.851 243.045 120.232C244.175 119.613 245.434 119.304 246.821 119.304C248.314 119.304 249.647 119.624 250.821 120.264C252.015 120.883 252.954 121.8 253.637 123.016C254.341 124.232 254.693 125.725 254.693 127.496V135.656C254.693 136.04 254.565 136.36 254.309 136.616C254.053 136.872 253.733 137 253.349 137ZM239.781 137C239.354 137 239.013 136.883 238.757 136.648C238.522 136.392 238.405 136.061 238.405 135.656V120.872C238.405 120.445 238.522 120.115 238.757 119.88C239.013 119.624 239.354 119.496 239.781 119.496C240.186 119.496 240.506 119.624 240.741 119.88C240.997 120.115 241.125 120.445 241.125 120.872V135.656C241.125 136.061 240.997 136.392 240.741 136.648C240.506 136.883 240.186 137 239.781 137ZM266.812 137C265.702 137 264.71 136.733 263.836 136.2C262.961 135.667 262.268 134.931 261.756 133.992C261.265 133.053 261.02 131.997 261.02 130.824V115.272C261.02 114.888 261.137 114.568 261.372 114.312C261.628 114.056 261.958 113.928 262.364 113.928C262.748 113.928 263.068 114.056 263.324 114.312C263.58 114.568 263.708 114.888 263.708 115.272V130.824C263.708 131.827 263.996 132.659 264.572 133.32C265.169 133.981 265.916 134.312 266.812 134.312H267.772C268.113 134.312 268.401 134.44 268.636 134.696C268.87 134.952 268.988 135.272 268.988 135.656C268.988 136.061 268.838 136.392 268.54 136.648C268.262 136.883 267.9 137 267.452 137H266.812ZM259.132 122.472C258.769 122.472 258.47 122.365 258.236 122.152C258.001 121.917 257.884 121.64 257.884 121.32C257.884 120.979 258.001 120.701 258.236 120.488C258.47 120.253 258.769 120.136 259.132 120.136H267.036C267.398 120.136 267.697 120.253 267.932 120.488C268.166 120.701 268.284 120.979 268.284 121.32C268.284 121.64 268.166 121.917 267.932 122.152C267.697 122.365 267.398 122.472 267.036 122.472H259.132ZM280.551 137.192C279.036 137.192 277.681 136.883 276.487 136.264C275.313 135.624 274.385 134.696 273.703 133.48C273.02 132.264 272.679 130.771 272.679 129V120.84C272.679 120.456 272.807 120.136 273.063 119.88C273.319 119.624 273.639 119.496 274.023 119.496C274.407 119.496 274.727 119.624 274.983 119.88C275.239 120.136 275.367 120.456 275.367 120.84V129C275.367 130.301 275.612 131.368 276.103 132.2C276.593 133.011 277.255 133.629 278.087 134.056C278.919 134.461 279.857 134.664 280.903 134.664C281.905 134.664 282.812 134.472 283.623 134.088C284.433 133.683 285.073 133.149 285.543 132.488C286.012 131.805 286.247 131.027 286.247 130.152H288.071C288.028 131.496 287.676 132.701 287.015 133.768C286.353 134.813 285.457 135.645 284.327 136.264C283.196 136.883 281.937 137.192 280.551 137.192ZM287.591 137C287.185 137 286.855 136.883 286.599 136.648C286.364 136.392 286.247 136.051 286.247 135.624V120.84C286.247 120.435 286.364 120.115 286.599 119.88C286.855 119.624 287.185 119.496 287.591 119.496C287.996 119.496 288.327 119.624 288.583 119.88C288.839 120.115 288.967 120.435 288.967 120.84V135.624C288.967 136.051 288.839 136.392 288.583 136.648C288.327 136.883 287.996 137 287.591 137ZM296.541 137C296.136 137 295.805 136.883 295.549 136.648C295.293 136.392 295.165 136.051 295.165 135.624V120.872C295.165 120.445 295.293 120.115 295.549 119.88C295.805 119.624 296.136 119.496 296.541 119.496C296.947 119.496 297.267 119.624 297.501 119.88C297.757 120.115 297.885 120.445 297.885 120.872V135.624C297.885 136.051 297.757 136.392 297.501 136.648C297.267 136.883 296.947 137 296.541 137ZM296.509 116.328C295.997 116.328 295.56 116.147 295.197 115.784C294.835 115.4 294.653 114.952 294.653 114.44C294.653 113.907 294.835 113.469 295.197 113.128C295.581 112.787 296.019 112.616 296.509 112.616C297 112.616 297.427 112.787 297.789 113.128C298.173 113.469 298.365 113.907 298.365 114.44C298.365 114.952 298.184 115.4 297.821 115.784C297.459 116.147 297.021 116.328 296.509 116.328ZM310.78 137C309.671 137 308.679 136.733 307.804 136.2C306.93 135.667 306.236 134.931 305.724 133.992C305.234 133.053 304.988 131.997 304.988 130.824V115.272C304.988 114.888 305.106 114.568 305.34 114.312C305.596 114.056 305.927 113.928 306.332 113.928C306.716 113.928 307.036 114.056 307.292 114.312C307.548 114.568 307.676 114.888 307.676 115.272V130.824C307.676 131.827 307.964 132.659 308.54 133.32C309.138 133.981 309.884 134.312 310.78 134.312H311.74C312.082 134.312 312.37 134.44 312.604 134.696C312.839 134.952 312.956 135.272 312.956 135.656C312.956 136.061 312.807 136.392 312.508 136.648C312.231 136.883 311.868 137 311.42 137H310.78ZM303.1 122.472C302.738 122.472 302.439 122.365 302.204 122.152C301.97 121.917 301.852 121.64 301.852 121.32C301.852 120.979 301.97 120.701 302.204 120.488C302.439 120.253 302.738 120.136 303.1 120.136H311.004C311.367 120.136 311.666 120.253 311.9 120.488C312.135 120.701 312.252 120.979 312.252 121.32C312.252 121.64 312.135 121.917 311.9 122.152C311.666 122.365 311.367 122.472 311.004 122.472H303.1ZM318.791 137C318.386 137 318.055 136.883 317.799 136.648C317.543 136.392 317.415 136.051 317.415 135.624V120.872C317.415 120.445 317.543 120.115 317.799 119.88C318.055 119.624 318.386 119.496 318.791 119.496C319.197 119.496 319.517 119.624 319.751 119.88C320.007 120.115 320.135 120.445 320.135 120.872V135.624C320.135 136.051 320.007 136.392 319.751 136.648C319.517 136.883 319.197 137 318.791 137ZM318.759 116.328C318.247 116.328 317.81 116.147 317.447 115.784C317.085 115.4 316.903 114.952 316.903 114.44C316.903 113.907 317.085 113.469 317.447 113.128C317.831 112.787 318.269 112.616 318.759 112.616C319.25 112.616 319.677 112.787 320.039 113.128C320.423 113.469 320.615 113.907 320.615 114.44C320.615 114.952 320.434 115.4 320.071 115.784C319.709 116.147 319.271 116.328 318.759 116.328ZM332.294 137C331.74 137 331.324 136.701 331.046 136.104L324.038 121.256C323.889 120.957 323.868 120.659 323.974 120.36C324.102 120.061 324.337 119.827 324.678 119.656C324.998 119.485 325.308 119.464 325.606 119.592C325.926 119.699 326.172 119.901 326.342 120.2L332.998 134.632H331.622L338.214 120.2C338.342 119.88 338.577 119.667 338.918 119.56C339.26 119.453 339.59 119.475 339.91 119.624C340.252 119.795 340.476 120.04 340.582 120.36C340.689 120.659 340.678 120.947 340.55 121.224L333.606 136.104C333.329 136.701 332.892 137 332.294 137ZM351.374 137.16C349.625 137.16 348.078 136.787 346.734 136.04C345.39 135.272 344.334 134.216 343.566 132.872C342.798 131.528 342.414 129.992 342.414 128.264C342.414 126.515 342.777 124.979 343.502 123.656C344.228 122.312 345.22 121.256 346.478 120.488C347.758 119.72 349.23 119.336 350.894 119.336C352.516 119.336 353.924 119.709 355.118 120.456C356.334 121.181 357.262 122.195 357.902 123.496C358.564 124.797 358.894 126.28 358.894 127.944C358.894 128.307 358.777 128.605 358.542 128.84C358.308 129.053 358.009 129.16 357.646 129.16H344.27V126.952H357.806L356.43 127.912C356.452 126.739 356.238 125.683 355.79 124.744C355.342 123.805 354.702 123.069 353.87 122.536C353.038 122.003 352.046 121.736 350.894 121.736C349.678 121.736 348.612 122.013 347.694 122.568C346.798 123.123 346.105 123.901 345.614 124.904C345.145 125.885 344.91 127.005 344.91 128.264C344.91 129.523 345.188 130.643 345.742 131.624C346.297 132.605 347.054 133.373 348.014 133.928C348.996 134.483 350.116 134.76 351.374 134.76C352.1 134.76 352.836 134.632 353.582 134.376C354.35 134.12 354.958 133.8 355.406 133.416C355.662 133.224 355.95 133.128 356.27 133.128C356.612 133.107 356.889 133.192 357.102 133.384C357.422 133.661 357.582 133.96 357.582 134.28C357.604 134.6 357.465 134.877 357.166 135.112C356.462 135.709 355.566 136.2 354.478 136.584C353.39 136.968 352.356 137.16 351.374 137.16ZM374.228 137C373.823 137 373.471 136.872 373.172 136.616C372.895 136.36 372.756 136.029 372.756 135.624V113.384C372.756 112.979 372.884 112.648 373.14 112.392C373.396 112.136 373.727 112.008 374.132 112.008H381.876C383.199 112.008 384.383 112.285 385.428 112.84C386.495 113.395 387.337 114.152 387.956 115.112C388.575 116.051 388.884 117.149 388.884 118.408C388.884 119.539 388.575 120.541 387.956 121.416C387.359 122.291 386.569 122.973 385.588 123.464C386.996 123.827 388.137 124.531 389.012 125.576C389.887 126.6 390.324 127.923 390.324 129.544C390.324 131.016 389.983 132.307 389.3 133.416C388.639 134.525 387.711 135.4 386.516 136.04C385.343 136.68 383.988 137 382.452 137H374.228ZM375.508 134.408H382.452C383.455 134.408 384.34 134.216 385.108 133.832C385.897 133.427 386.516 132.872 386.964 132.168C387.412 131.443 387.636 130.568 387.636 129.544C387.636 128.605 387.412 127.795 386.964 127.112C386.516 126.429 385.897 125.907 385.108 125.544C384.34 125.181 383.455 125 382.452 125H375.508V134.408ZM375.508 122.376H381.876C383.135 122.376 384.169 122.035 384.98 121.352C385.791 120.669 386.196 119.688 386.196 118.408C386.196 117.149 385.791 116.2 384.98 115.56C384.169 114.92 383.135 114.6 381.876 114.6H375.508V122.376ZM396.663 137C396.258 137 395.927 136.872 395.671 136.616C395.415 136.36 395.287 136.029 395.287 135.624V113.384C395.287 112.979 395.415 112.648 395.671 112.392C395.927 112.136 396.258 112.008 396.663 112.008C397.069 112.008 397.399 112.136 397.655 112.392C397.911 112.648 398.039 112.979 398.039 113.384V135.624C398.039 136.029 397.911 136.36 397.655 136.616C397.399 136.872 397.069 137 396.663 137Z" fill="#616164"/>
<path d="M170.977 220C170.433 220 169.985 219.824 169.633 219.472C169.281 219.12 169.105 218.672 169.105 218.128V184.384C169.105 183.84 169.281 183.392 169.633 183.04C169.985 182.688 170.433 182.512 170.977 182.512H193.489C194.001 182.512 194.433 182.688 194.785 183.04C195.169 183.36 195.361 183.792 195.361 184.336C195.361 184.816 195.169 185.232 194.785 185.584C194.433 185.936 194.001 186.112 193.489 186.112H172.849V199.36H187.873C188.417 199.36 188.865 199.536 189.217 199.888C189.569 200.24 189.745 200.672 189.745 201.184C189.745 201.696 189.569 202.128 189.217 202.48C188.865 202.832 188.417 203.008 187.873 203.008H172.849V216.4H193.489C194.001 216.4 194.433 216.576 194.785 216.928C195.169 217.28 195.361 217.696 195.361 218.176C195.361 218.72 195.169 219.168 194.785 219.52C194.433 219.84 194.001 220 193.489 220H170.977ZM213.427 220.24C210.963 220.24 208.755 219.664 206.803 218.512C204.851 217.328 203.299 215.728 202.147 213.712C201.027 211.696 200.467 209.424 200.467 206.896C200.467 204.336 201.043 202.048 202.195 200.032C203.379 198.016 204.979 196.432 206.995 195.28C209.011 194.096 211.283 193.504 213.811 193.504C216.339 193.504 218.595 194.096 220.579 195.28C222.595 196.432 224.179 198.016 225.331 200.032C226.515 202.048 227.123 204.336 227.155 206.896L225.667 208.048C225.667 210.352 225.123 212.432 224.035 214.288C222.979 216.112 221.523 217.568 219.667 218.656C217.843 219.712 215.763 220.24 213.427 220.24ZM213.811 216.88C215.667 216.88 217.315 216.448 218.755 215.584C220.227 214.72 221.379 213.536 222.211 212.032C223.075 210.496 223.507 208.784 223.507 206.896C223.507 204.976 223.075 203.264 222.211 201.76C221.379 200.256 220.227 199.072 218.755 198.208C217.315 197.312 215.667 196.864 213.811 196.864C211.987 196.864 210.339 197.312 208.867 198.208C207.395 199.072 206.227 200.256 205.363 201.76C204.499 203.264 204.067 204.976 204.067 206.896C204.067 208.784 204.499 210.496 205.363 212.032C206.227 213.536 207.395 214.72 208.867 215.584C210.339 216.448 211.987 216.88 213.811 216.88ZM225.283 220C224.739 220 224.291 219.84 223.939 219.52C223.587 219.168 223.411 218.72 223.411 218.176V209.968L224.323 206.176L227.155 206.896V218.176C227.155 218.72 226.979 219.168 226.627 219.52C226.275 219.84 225.827 220 225.283 220ZM243.511 220.24C241.623 220.24 239.751 219.92 237.895 219.28C236.039 218.64 234.535 217.68 233.383 216.4C233.031 216.016 232.887 215.584 232.951 215.104C233.015 214.624 233.255 214.208 233.671 213.856C234.119 213.536 234.583 213.408 235.063 213.472C235.543 213.536 235.943 213.744 236.263 214.096C237.031 214.992 238.039 215.68 239.287 216.16C240.567 216.64 241.975 216.88 243.511 216.88C245.879 216.88 247.591 216.48 248.647 215.68C249.703 214.848 250.247 213.856 250.279 212.704C250.279 211.552 249.735 210.608 248.647 209.872C247.559 209.104 245.767 208.512 243.271 208.096C240.039 207.584 237.671 206.688 236.167 205.408C234.663 204.128 233.911 202.608 233.911 200.848C233.911 199.216 234.343 197.856 235.207 196.768C236.071 195.68 237.223 194.864 238.663 194.32C240.103 193.776 241.687 193.504 243.415 193.504C245.559 193.504 247.399 193.872 248.935 194.608C250.503 195.344 251.767 196.336 252.727 197.584C253.047 198 253.175 198.432 253.111 198.88C253.047 199.328 252.791 199.696 252.343 199.984C251.959 200.208 251.511 200.288 250.999 200.224C250.519 200.128 250.103 199.888 249.751 199.504C248.951 198.576 248.023 197.904 246.967 197.488C245.911 197.04 244.695 196.816 243.319 196.816C241.559 196.816 240.151 197.184 239.095 197.92C238.039 198.624 237.511 199.52 237.511 200.608C237.511 201.344 237.703 201.984 238.087 202.528C238.503 203.072 239.191 203.552 240.151 203.968C241.143 204.384 242.519 204.736 244.279 205.024C246.679 205.408 248.567 205.984 249.943 206.752C251.351 207.488 252.343 208.368 252.919 209.392C253.527 210.384 253.831 211.472 253.831 212.656C253.831 214.16 253.383 215.488 252.487 216.64C251.623 217.76 250.407 218.64 248.839 219.28C247.303 219.92 245.527 220.24 243.511 220.24ZM262.858 220C262.282 220 261.818 219.84 261.466 219.52C261.146 219.168 260.986 218.704 260.986 218.128V195.616C260.986 195.04 261.146 194.592 261.466 194.272C261.818 193.92 262.282 193.744 262.858 193.744C263.402 193.744 263.834 193.92 264.154 194.272C264.506 194.592 264.682 195.04 264.682 195.616V218.128C264.682 218.704 264.506 219.168 264.154 219.52C263.834 219.84 263.402 220 262.858 220ZM262.81 188.752C262.106 188.752 261.498 188.496 260.986 187.984C260.474 187.472 260.218 186.848 260.218 186.112C260.218 185.312 260.474 184.688 260.986 184.24C261.53 183.76 262.154 183.52 262.858 183.52C263.53 183.52 264.122 183.76 264.634 184.24C265.178 184.688 265.45 185.312 265.45 186.112C265.45 186.848 265.194 187.472 264.682 187.984C264.17 188.496 263.546 188.752 262.81 188.752ZM285.997 220.24C283.405 220.24 281.101 219.68 279.085 218.56C277.101 217.408 275.533 215.824 274.381 213.808C273.261 211.792 272.701 209.488 272.701 206.896C272.701 204.272 273.229 201.968 274.285 199.984C275.373 197.968 276.861 196.384 278.749 195.232C280.637 194.08 282.813 193.504 285.277 193.504C287.709 193.504 289.821 194.064 291.613 195.184C293.437 196.272 294.845 197.792 295.837 199.744C296.829 201.696 297.325 203.92 297.325 206.416C297.325 206.928 297.165 207.344 296.845 207.664C296.525 207.952 296.109 208.096 295.597 208.096H275.197V205.024H295.981L293.917 206.512C293.949 204.656 293.613 202.992 292.909 201.52C292.205 200.048 291.197 198.896 289.885 198.064C288.605 197.232 287.069 196.816 285.277 196.816C283.453 196.816 281.853 197.248 280.477 198.112C279.101 198.976 278.029 200.176 277.261 201.712C276.525 203.216 276.157 204.944 276.157 206.896C276.157 208.848 276.573 210.576 277.405 212.08C278.269 213.584 279.437 214.768 280.909 215.632C282.381 216.496 284.077 216.928 285.997 216.928C287.149 216.928 288.301 216.736 289.453 216.352C290.637 215.936 291.581 215.424 292.285 214.816C292.637 214.528 293.037 214.384 293.485 214.384C293.933 214.352 294.317 214.464 294.637 214.72C295.053 215.104 295.261 215.52 295.261 215.968C295.293 216.416 295.117 216.8 294.733 217.12C293.677 218.016 292.333 218.768 290.701 219.376C289.069 219.952 287.501 220.24 285.997 220.24ZM305.114 203.824C305.21 201.84 305.722 200.064 306.65 198.496C307.61 196.928 308.842 195.696 310.346 194.8C311.882 193.904 313.578 193.456 315.434 193.456C316.906 193.456 318.042 193.664 318.842 194.08C319.642 194.496 319.946 195.104 319.754 195.904C319.626 196.384 319.402 196.704 319.082 196.864C318.794 197.024 318.426 197.088 317.978 197.056C317.562 197.024 317.082 196.992 316.538 196.96C314.746 196.8 313.146 196.992 311.738 197.536C310.362 198.048 309.258 198.848 308.426 199.936C307.626 201.024 307.226 202.32 307.226 203.824H305.114ZM305.402 220C304.826 220 304.378 219.84 304.058 219.52C303.738 219.2 303.578 218.752 303.578 218.176V195.568C303.578 194.992 303.738 194.544 304.058 194.224C304.378 193.904 304.826 193.744 305.402 193.744C305.978 193.744 306.426 193.904 306.746 194.224C307.066 194.544 307.226 194.992 307.226 195.568V218.176C307.226 218.752 307.066 219.2 306.746 219.52C306.426 219.84 305.978 220 305.402 220ZM351.577 220.24C349.049 220.24 346.777 219.664 344.761 218.512C342.745 217.328 341.145 215.728 339.961 213.712C338.809 211.696 338.233 209.408 338.233 206.848C338.233 204.32 338.793 202.048 339.913 200.032C341.065 198.016 342.617 196.432 344.569 195.28C346.521 194.096 348.729 193.504 351.193 193.504C353.337 193.504 355.273 193.968 357.001 194.896C358.729 195.792 360.121 196.992 361.177 198.496V184.384C361.177 183.808 361.353 183.36 361.705 183.04C362.057 182.688 362.505 182.512 363.049 182.512C363.593 182.512 364.041 182.688 364.393 183.04C364.745 183.36 364.921 183.808 364.921 184.384V207.04C364.857 209.536 364.233 211.792 363.049 213.808C361.897 215.792 360.313 217.36 358.297 218.512C356.313 219.664 354.073 220.24 351.577 220.24ZM351.577 216.88C353.433 216.88 355.081 216.448 356.521 215.584C357.993 214.688 359.145 213.488 359.977 211.984C360.841 210.48 361.273 208.768 361.273 206.848C361.273 204.96 360.841 203.264 359.977 201.76C359.145 200.224 357.993 199.024 356.521 198.16C355.081 197.296 353.433 196.864 351.577 196.864C349.753 196.864 348.105 197.296 346.633 198.16C345.161 199.024 343.993 200.224 343.129 201.76C342.265 203.264 341.833 204.96 341.833 206.848C341.833 208.768 342.265 210.48 343.129 211.984C343.993 213.488 345.161 214.688 346.633 215.584C348.105 216.448 349.753 216.88 351.577 216.88ZM385.514 220.24C382.954 220.24 380.666 219.664 378.65 218.512C376.634 217.36 375.05 215.776 373.898 213.76C372.746 211.744 372.17 209.456 372.17 206.896C372.17 204.304 372.746 202 373.898 199.984C375.05 197.968 376.634 196.384 378.65 195.232C380.666 194.08 382.954 193.504 385.514 193.504C388.074 193.504 390.346 194.08 392.33 195.232C394.346 196.384 395.93 197.968 397.082 199.984C398.234 202 398.826 204.304 398.858 206.896C398.858 209.456 398.266 211.744 397.082 213.76C395.93 215.776 394.346 217.36 392.33 218.512C390.346 219.664 388.074 220.24 385.514 220.24ZM385.514 216.88C387.37 216.88 389.034 216.448 390.506 215.584C391.978 214.72 393.13 213.536 393.962 212.032C394.794 210.528 395.21 208.816 395.21 206.896C395.21 204.976 394.794 203.264 393.962 201.76C393.13 200.224 391.978 199.024 390.506 198.16C389.034 197.296 387.37 196.864 385.514 196.864C383.658 196.864 381.994 197.296 380.522 198.16C379.05 199.024 377.882 200.224 377.018 201.76C376.186 203.264 375.77 204.976 375.77 206.896C375.77 208.816 376.186 210.528 377.018 212.032C377.882 213.536 379.05 214.72 380.522 215.584C381.994 216.448 383.658 216.88 385.514 216.88ZM428.559 220C428.015 220 427.567 219.824 427.215 219.472C426.863 219.12 426.687 218.688 426.687 218.176V205.696C426.687 203.712 426.303 202.08 425.535 200.8C424.799 199.52 423.775 198.56 422.463 197.92C421.183 197.28 419.727 196.96 418.095 196.96C416.527 196.96 415.103 197.264 413.823 197.872C412.575 198.48 411.583 199.312 410.847 200.368C410.111 201.424 409.743 202.624 409.743 203.968H407.103C407.167 201.952 407.711 200.16 408.735 198.592C409.759 196.992 411.119 195.744 412.815 194.848C414.511 193.92 416.399 193.456 418.479 193.456C420.751 193.456 422.783 193.936 424.575 194.896C426.367 195.824 427.775 197.2 428.799 199.024C429.855 200.848 430.383 203.072 430.383 205.696V218.176C430.383 218.688 430.207 219.12 429.855 219.472C429.503 219.824 429.071 220 428.559 220ZM407.919 220C407.343 220 406.879 219.84 406.527 219.52C406.207 219.168 406.047 218.72 406.047 218.176V195.616C406.047 195.04 406.207 194.592 406.527 194.272C406.879 193.92 407.343 193.744 407.919 193.744C408.463 193.744 408.895 193.92 409.215 194.272C409.567 194.592 409.743 195.04 409.743 195.616V218.176C409.743 218.72 409.567 219.168 409.215 219.52C408.895 219.84 408.463 220 407.919 220ZM450.435 220.24C447.843 220.24 445.539 219.68 443.523 218.56C441.539 217.408 439.971 215.824 438.819 213.808C437.699 211.792 437.139 209.488 437.139 206.896C437.139 204.272 437.667 201.968 438.723 199.984C439.811 197.968 441.299 196.384 443.187 195.232C445.075 194.08 447.251 193.504 449.715 193.504C452.147 193.504 454.259 194.064 456.051 195.184C457.875 196.272 459.283 197.792 460.275 199.744C461.267 201.696 461.763 203.92 461.763 206.416C461.763 206.928 461.603 207.344 461.283 207.664C460.963 207.952 460.547 208.096 460.035 208.096H439.635V205.024H460.419L458.355 206.512C458.387 204.656 458.051 202.992 457.347 201.52C456.643 200.048 455.635 198.896 454.323 198.064C453.043 197.232 451.507 196.816 449.715 196.816C447.891 196.816 446.291 197.248 444.915 198.112C443.539 198.976 442.467 200.176 441.699 201.712C440.963 203.216 440.595 204.944 440.595 206.896C440.595 208.848 441.011 210.576 441.843 212.08C442.707 213.584 443.875 214.768 445.347 215.632C446.819 216.496 448.515 216.928 450.435 216.928C451.587 216.928 452.739 216.736 453.891 216.352C455.075 215.936 456.019 215.424 456.723 214.816C457.075 214.528 457.475 214.384 457.923 214.384C458.371 214.352 458.755 214.464 459.075 214.72C459.491 215.104 459.699 215.52 459.699 215.968C459.731 216.416 459.555 216.8 459.171 217.12C458.115 218.016 456.771 218.768 455.139 219.376C453.507 219.952 451.939 220.24 450.435 220.24ZM146.576 274C144.88 274 143.36 273.6 142.016 272.8C140.704 272 139.664 270.912 138.896 269.536C138.128 268.128 137.744 266.528 137.744 264.736V241.264C137.744 240.72 137.904 240.272 138.224 239.92C138.576 239.568 139.024 239.392 139.568 239.392C140.112 239.392 140.56 239.568 140.912 239.92C141.264 240.272 141.44 240.72 141.44 241.264V264.736C141.44 266.368 141.92 267.712 142.88 268.768C143.84 269.792 145.072 270.304 146.576 270.304H147.872C148.384 270.304 148.8 270.48 149.12 270.832C149.44 271.184 149.6 271.632 149.6 272.176C149.6 272.72 149.408 273.168 149.024 273.52C148.64 273.84 148.16 274 147.584 274H146.576ZM134.624 251.92C134.144 251.92 133.744 251.776 133.424 251.488C133.104 251.168 132.944 250.784 132.944 250.336C132.944 249.856 133.104 249.472 133.424 249.184C133.744 248.864 134.144 248.704 134.624 248.704H146.864C147.344 248.704 147.744 248.864 148.064 249.184C148.384 249.472 148.544 249.856 148.544 250.336C148.544 250.784 148.384 251.168 148.064 251.488C147.744 251.776 147.344 251.92 146.864 251.92H134.624ZM157.489 263.296C156.913 263.296 156.449 263.12 156.097 262.768C155.777 262.416 155.617 261.968 155.617 261.424V238.384C155.617 237.808 155.777 237.36 156.097 237.04C156.449 236.688 156.913 236.512 157.489 236.512C158.033 236.512 158.465 236.688 158.785 237.04C159.137 237.36 159.313 237.808 159.313 238.384V261.424C159.313 261.968 159.137 262.416 158.785 262.768C158.465 263.12 158.033 263.296 157.489 263.296ZM178.129 274C177.585 274 177.137 273.824 176.785 273.472C176.433 273.12 176.257 272.688 176.257 272.176V259.696C176.257 257.712 175.873 256.08 175.105 254.8C174.369 253.52 173.345 252.56 172.033 251.92C170.753 251.28 169.297 250.96 167.665 250.96C166.097 250.96 164.673 251.264 163.393 251.872C162.145 252.48 161.153 253.312 160.417 254.368C159.681 255.424 159.313 256.624 159.313 257.968H156.673C156.737 255.952 157.281 254.16 158.305 252.592C159.329 250.992 160.689 249.744 162.385 248.848C164.081 247.92 165.969 247.456 168.049 247.456C170.321 247.456 172.353 247.936 174.145 248.896C175.937 249.824 177.345 251.2 178.369 253.024C179.425 254.848 179.953 257.072 179.953 259.696V272.176C179.953 272.688 179.777 273.12 179.425 273.472C179.073 273.824 178.641 274 178.129 274ZM157.489 274C156.913 274 156.449 273.84 156.097 273.52C155.777 273.168 155.617 272.72 155.617 272.176V249.616C155.617 249.04 155.777 248.592 156.097 248.272C156.449 247.92 156.913 247.744 157.489 247.744C158.033 247.744 158.465 247.92 158.785 248.272C159.137 248.592 159.313 249.04 159.313 249.616V272.176C159.313 272.72 159.137 273.168 158.785 273.52C158.465 273.84 158.033 274 157.489 274ZM199.669 274.24C197.205 274.24 194.997 273.664 193.045 272.512C191.093 271.328 189.541 269.728 188.389 267.712C187.269 265.696 186.709 263.424 186.709 260.896C186.709 258.336 187.285 256.048 188.437 254.032C189.621 252.016 191.221 250.432 193.237 249.28C195.253 248.096 197.525 247.504 200.053 247.504C202.581 247.504 204.837 248.096 206.821 249.28C208.837 250.432 210.421 252.016 211.573 254.032C212.757 256.048 213.365 258.336 213.397 260.896L211.909 262.048C211.909 264.352 211.365 266.432 210.277 268.288C209.221 270.112 207.765 271.568 205.909 272.656C204.085 273.712 202.005 274.24 199.669 274.24ZM200.053 270.88C201.909 270.88 203.557 270.448 204.997 269.584C206.469 268.72 207.621 267.536 208.453 266.032C209.317 264.496 209.749 262.784 209.749 260.896C209.749 258.976 209.317 257.264 208.453 255.76C207.621 254.256 206.469 253.072 204.997 252.208C203.557 251.312 201.909 250.864 200.053 250.864C198.229 250.864 196.581 251.312 195.109 252.208C193.637 253.072 192.469 254.256 191.605 255.76C190.741 257.264 190.309 258.976 190.309 260.896C190.309 262.784 190.741 264.496 191.605 266.032C192.469 267.536 193.637 268.72 195.109 269.584C196.581 270.448 198.229 270.88 200.053 270.88ZM211.525 274C210.981 274 210.533 273.84 210.181 273.52C209.829 273.168 209.653 272.72 209.653 272.176V263.968L210.565 260.176L213.397 260.896V272.176C213.397 272.72 213.221 273.168 212.869 273.52C212.517 273.84 212.069 274 211.525 274ZM243.098 274C242.554 274 242.106 273.824 241.754 273.472C241.402 273.12 241.226 272.688 241.226 272.176V259.696C241.226 257.712 240.842 256.08 240.074 254.8C239.338 253.52 238.314 252.56 237.002 251.92C235.722 251.28 234.266 250.96 232.634 250.96C231.066 250.96 229.642 251.264 228.362 251.872C227.114 252.48 226.122 253.312 225.386 254.368C224.65 255.424 224.282 256.624 224.282 257.968H221.642C221.706 255.952 222.25 254.16 223.274 252.592C224.298 250.992 225.658 249.744 227.354 248.848C229.05 247.92 230.938 247.456 233.018 247.456C235.29 247.456 237.322 247.936 239.114 248.896C240.906 249.824 242.314 251.2 243.338 253.024C244.394 254.848 244.922 257.072 244.922 259.696V272.176C244.922 272.688 244.746 273.12 244.394 273.472C244.042 273.824 243.61 274 243.098 274ZM222.458 274C221.882 274 221.418 273.84 221.066 273.52C220.746 273.168 220.586 272.72 220.586 272.176V249.616C220.586 249.04 220.746 248.592 221.066 248.272C221.418 247.92 221.882 247.744 222.458 247.744C223.002 247.744 223.434 247.92 223.754 248.272C224.106 248.592 224.282 249.04 224.282 249.616V272.176C224.282 272.72 224.106 273.168 223.754 273.52C223.434 273.84 223.002 274 222.458 274ZM276.301 274.24C274.413 274.24 272.541 273.92 270.685 273.28C268.829 272.64 267.325 271.68 266.173 270.4C265.821 270.016 265.677 269.584 265.741 269.104C265.805 268.624 266.045 268.208 266.461 267.856C266.909 267.536 267.373 267.408 267.853 267.472C268.333 267.536 268.733 267.744 269.053 268.096C269.821 268.992 270.829 269.68 272.077 270.16C273.357 270.64 274.765 270.88 276.301 270.88C278.669 270.88 280.381 270.48 281.437 269.68C282.493 268.848 283.037 267.856 283.069 266.704C283.069 265.552 282.525 264.608 281.437 263.872C280.349 263.104 278.557 262.512 276.061 262.096C272.829 261.584 270.461 260.688 268.957 259.408C267.453 258.128 266.701 256.608 266.701 254.848C266.701 253.216 267.133 251.856 267.997 250.768C268.861 249.68 270.013 248.864 271.453 248.32C272.893 247.776 274.477 247.504 276.205 247.504C278.349 247.504 280.189 247.872 281.725 248.608C283.293 249.344 284.557 250.336 285.517 251.584C285.837 252 285.965 252.432 285.901 252.88C285.837 253.328 285.581 253.696 285.133 253.984C284.749 254.208 284.301 254.288 283.789 254.224C283.309 254.128 282.893 253.888 282.541 253.504C281.741 252.576 280.813 251.904 279.757 251.488C278.701 251.04 277.485 250.816 276.109 250.816C274.349 250.816 272.941 251.184 271.885 251.92C270.829 252.624 270.301 253.52 270.301 254.608C270.301 255.344 270.493 255.984 270.877 256.528C271.293 257.072 271.981 257.552 272.941 257.968C273.933 258.384 275.309 258.736 277.069 259.024C279.469 259.408 281.357 259.984 282.733 260.752C284.141 261.488 285.133 262.368 285.709 263.392C286.317 264.384 286.621 265.472 286.621 266.656C286.621 268.16 286.173 269.488 285.277 270.64C284.413 271.76 283.197 272.64 281.629 273.28C280.093 273.92 278.317 274.24 276.301 274.24ZM304.576 274.24C302.112 274.24 299.904 273.664 297.952 272.512C296 271.328 294.447 269.728 293.296 267.712C292.176 265.696 291.616 263.424 291.616 260.896C291.616 258.336 292.192 256.048 293.344 254.032C294.528 252.016 296.128 250.432 298.144 249.28C300.16 248.096 302.432 247.504 304.96 247.504C307.488 247.504 309.744 248.096 311.728 249.28C313.744 250.432 315.328 252.016 316.48 254.032C317.664 256.048 318.272 258.336 318.304 260.896L316.816 262.048C316.816 264.352 316.272 266.432 315.184 268.288C314.128 270.112 312.672 271.568 310.816 272.656C308.992 273.712 306.912 274.24 304.576 274.24ZM304.96 270.88C306.816 270.88 308.464 270.448 309.904 269.584C311.376 268.72 312.528 267.536 313.359 266.032C314.224 264.496 314.656 262.784 314.656 260.896C314.656 258.976 314.224 257.264 313.359 255.76C312.528 254.256 311.376 253.072 309.904 252.208C308.464 251.312 306.816 250.864 304.96 250.864C303.136 250.864 301.488 251.312 300.016 252.208C298.544 253.072 297.376 254.256 296.512 255.76C295.648 257.264 295.216 258.976 295.216 260.896C295.216 262.784 295.648 264.496 296.512 266.032C297.376 267.536 298.544 268.72 300.016 269.584C301.488 270.448 303.136 270.88 304.96 270.88ZM316.432 274C315.888 274 315.44 273.84 315.088 273.52C314.736 273.168 314.56 272.72 314.56 272.176V263.968L315.472 260.176L318.304 260.896V272.176C318.304 272.72 318.128 273.168 317.776 273.52C317.424 273.84 316.976 274 316.432 274ZM328.132 274C327.556 274 327.092 273.84 326.74 273.52C326.42 273.168 326.26 272.704 326.26 272.128V249.616C326.26 249.04 326.42 248.592 326.74 248.272C327.092 247.92 327.556 247.744 328.132 247.744C328.676 247.744 329.108 247.92 329.428 248.272C329.78 248.592 329.956 249.04 329.956 249.616V272.128C329.956 272.704 329.78 273.168 329.428 273.52C329.108 273.84 328.676 274 328.132 274ZM328.084 242.752C327.38 242.752 326.772 242.496 326.26 241.984C325.748 241.472 325.492 240.848 325.492 240.112C325.492 239.312 325.748 238.688 326.26 238.24C326.804 237.76 327.428 237.52 328.132 237.52C328.804 237.52 329.396 237.76 329.908 238.24C330.452 238.688 330.724 239.312 330.724 240.112C330.724 240.848 330.468 241.472 329.956 241.984C329.444 242.496 328.82 242.752 328.084 242.752ZM351.319 274.24C348.791 274.24 346.519 273.664 344.503 272.512C342.487 271.328 340.887 269.728 339.703 267.712C338.551 265.696 337.975 263.408 337.975 260.848C337.975 258.32 338.535 256.048 339.655 254.032C340.807 252.016 342.359 250.432 344.311 249.28C346.263 248.096 348.471 247.504 350.935 247.504C353.079 247.504 355.015 247.968 356.743 248.896C358.471 249.792 359.863 250.992 360.919 252.496V238.384C360.919 237.808 361.095 237.36 361.447 237.04C361.799 236.688 362.247 236.512 362.791 236.512C363.335 236.512 363.783 236.688 364.135 237.04C364.487 237.36 364.663 237.808 364.663 238.384V261.04C364.599 263.536 363.975 265.792 362.791 267.808C361.639 269.792 360.055 271.36 358.039 272.512C356.055 273.664 353.815 274.24 351.319 274.24ZM351.319 270.88C353.175 270.88 354.823 270.448 356.263 269.584C357.735 268.688 358.887 267.488 359.719 265.984C360.583 264.48 361.015 262.768 361.015 260.848C361.015 258.96 360.583 257.264 359.719 255.76C358.887 254.224 357.735 253.024 356.263 252.16C354.823 251.296 353.175 250.864 351.319 250.864C349.495 250.864 347.847 251.296 346.375 252.16C344.903 253.024 343.735 254.224 342.871 255.76C342.007 257.264 341.575 258.96 341.575 260.848C341.575 262.768 342.007 264.48 342.871 265.984C343.735 267.488 344.903 268.688 346.375 269.584C347.847 270.448 349.495 270.88 351.319 270.88ZM397.639 274C395.943 274 394.423 273.6 393.079 272.8C391.767 272 390.727 270.912 389.959 269.536C389.191 268.128 388.807 266.528 388.807 264.736V241.264C388.807 240.72 388.967 240.272 389.287 239.92C389.639 239.568 390.087 239.392 390.631 239.392C391.175 239.392 391.623 239.568 391.975 239.92C392.327 240.272 392.503 240.72 392.503 241.264V264.736C392.503 266.368 392.983 267.712 393.943 268.768C394.903 269.792 396.135 270.304 397.639 270.304H398.935C399.447 270.304 399.863 270.48 400.183 270.832C400.503 271.184 400.663 271.632 400.663 272.176C400.663 272.72 400.471 273.168 400.087 273.52C399.703 273.84 399.223 274 398.647 274H397.639ZM385.687 251.92C385.207 251.92 384.807 251.776 384.487 251.488C384.167 251.168 384.007 250.784 384.007 250.336C384.007 249.856 384.167 249.472 384.487 249.184C384.807 248.864 385.207 248.704 385.687 248.704H397.927C398.407 248.704 398.807 248.864 399.127 249.184C399.447 249.472 399.607 249.856 399.607 250.336C399.607 250.784 399.447 251.168 399.127 251.488C398.807 251.776 398.407 251.92 397.927 251.92H385.687ZM418.631 274.24C416.071 274.24 413.783 273.664 411.767 272.512C409.751 271.36 408.167 269.776 407.015 267.76C405.863 265.744 405.287 263.456 405.287 260.896C405.287 258.304 405.863 256 407.015 253.984C408.167 251.968 409.751 250.384 411.767 249.232C413.783 248.08 416.071 247.504 418.631 247.504C421.191 247.504 423.463 248.08 425.447 249.232C427.463 250.384 429.047 251.968 430.199 253.984C431.351 256 431.943 258.304 431.975 260.896C431.975 263.456 431.383 265.744 430.199 267.76C429.047 269.776 427.463 271.36 425.447 272.512C423.463 273.664 421.191 274.24 418.631 274.24ZM418.631 270.88C420.487 270.88 422.151 270.448 423.623 269.584C425.095 268.72 426.247 267.536 427.079 266.032C427.911 264.528 428.327 262.816 428.327 260.896C428.327 258.976 427.911 257.264 427.079 255.76C426.247 254.224 425.095 253.024 423.623 252.16C422.151 251.296 420.487 250.864 418.631 250.864C416.775 250.864 415.111 251.296 413.639 252.16C412.167 253.024 410.999 254.224 410.135 255.76C409.303 257.264 408.887 258.976 408.887 260.896C408.887 262.816 409.303 264.528 410.135 266.032C410.999 267.536 412.167 268.72 413.639 269.584C415.111 270.448 416.775 270.88 418.631 270.88ZM451.642 274C450.906 274 450.378 273.696 450.058 273.088C449.738 272.48 449.706 271.888 449.962 271.312L464.074 237.808C464.426 236.944 465.034 236.512 465.898 236.512C466.73 236.512 467.322 236.944 467.674 237.808L481.834 271.36C482.122 271.968 482.074 272.56 481.69 273.136C481.338 273.712 480.826 274 480.154 274C479.77 274 479.418 273.904 479.098 273.712C478.81 273.52 478.57 273.232 478.378 272.848L465.178 240.832H466.666L453.37 272.848C453.21 273.232 452.97 273.52 452.65 273.712C452.362 273.904 452.026 274 451.642 274ZM454.81 265.072L456.25 261.856H475.738L477.178 265.072H454.81ZM489.328 274C488.784 274 488.336 273.824 487.984 273.472C487.632 273.12 487.456 272.672 487.456 272.128V238.384C487.456 237.84 487.632 237.392 487.984 237.04C488.336 236.688 488.784 236.512 489.328 236.512C489.872 236.512 490.32 236.688 490.672 237.04C491.024 237.392 491.2 237.84 491.2 238.384V272.128C491.2 272.672 491.024 273.12 490.672 273.472C490.32 273.824 489.872 274 489.328 274Z" fill="url(#paint0_linear_35_6)"/>
<defs>
<linearGradient id="paint0_linear_35_6" x1="124" y1="231" x2="504" y2="231" gradientUnits="userSpaceOnUse">
<stop offset="0.1" stop-color="#2BB9BB"/>
<stop offset="0.81" stop-color="#AF99DB"/>
</linearGradient>
</defs>
</svg>
