<svg width="78" height="94" viewBox="0 0 78 94" fill="none" xmlns="http://www.w3.org/2000/svg">
<path d="M7 25L7 75.5" stroke="#808080" stroke-width="5" stroke-linecap="round"/>
<path d="M72 24V74" stroke="#808080" stroke-width="5" stroke-linecap="round"/>
<path d="M8 45.9637C19.6023 54.6371 50.3333 63.2924 71 44.5" stroke="#808080" stroke-width="5" stroke-linecap="round"/>
<path d="M8 60.9637C19.6023 69.6371 50.3333 78.2924 71 59.5" stroke="#808080" stroke-width="5" stroke-linecap="round"/>
<path d="M72 24C72 22.5472 71.362 20.7974 69.8719 18.8916C68.3912 16.9977 66.1693 15.0865 63.3046 13.3757C57.5765 9.95501 49.55 7.5 40.6129 7.5C31.7115 7.5 23.1158 10.1868 16.7887 13.8873C13.6262 15.7369 11.1126 17.792 9.41961 19.8047C7.6996 21.8496 7 23.6357 7 25C7 26.3321 7.67133 27.9716 9.34957 29.803C11.0127 31.6179 13.5001 33.4306 16.6625 35.0436C22.9831 38.2676 31.6202 40.5 40.6129 40.5C49.55 40.5 57.5765 38.045 63.3046 34.6243C66.1693 32.9135 68.3912 31.0023 69.8719 29.1084C71.362 27.2026 72 25.4528 72 24Z" stroke="#808080" stroke-width="5"/>
<path d="M7 75.9987C19.3771 84.6608 49.9532 93.7679 72 75" stroke="#808080" stroke-width="5" stroke-linecap="round"/>
</svg>
