<svg width="90" height="100" viewBox="0 0 90 100" fill="none" xmlns="http://www.w3.org/2000/svg">
<rect x="5" y="9" width="30" height="28" stroke="#808080" stroke-width="6"/>
<rect x="10.9706" y="15.7727" width="18.0588" height="5.18182" fill="#808080" stroke="#808080"/>
<rect x="10.9706" y="25.0454" width="18.0588" height="5.18182" fill="#808080" stroke="#808080"/>
<rect x="5" y="65" width="30" height="28" stroke="#808080" stroke-width="6"/>
<rect x="10.9706" y="71.7727" width="18.0588" height="5.18182" fill="#808080" stroke="#808080"/>
<rect x="10.9706" y="81.0454" width="18.0588" height="5.18182" fill="#808080" stroke="#808080"/>
<rect x="55" y="37" width="30" height="28" stroke="#808080" stroke-width="6"/>
<rect x="60.9706" y="43.7727" width="18.0588" height="5.18182" fill="#808080" stroke="#808080"/>
<rect x="60.9706" y="53.0454" width="18.0588" height="5.18182" fill="#808080" stroke="#808080"/>
<rect x="38.5" y="19.5" width="29" height="3" fill="#808080" stroke="#808080"/>
<rect x="38.5" y="78.5" width="34" height="3" fill="#808080" stroke="#808080"/>
<rect x="68.5" y="33.5" width="14" height="3" transform="rotate(-90 68.5 33.5)" fill="#808080" stroke="#808080"/>
<rect x="69.5" y="77.5" width="9" height="3" transform="rotate(-90 69.5 77.5)" fill="#808080" stroke="#808080"/>
</svg>